G04 #@! TF.GenerationSoftware,KiCad,Pcbnew,(5.1.5)-3*
G04 #@! TF.CreationDate,2021-02-08T23:57:45+00:00*
G04 #@! TF.ProjectId,faderbox,66616465-7262-46f7-982e-6b696361645f,rev?*
G04 #@! TF.SameCoordinates,Original*
G04 #@! TF.FileFunction,Copper,L1,Top*
G04 #@! TF.FilePolarity,Positive*
%FSLAX46Y46*%
G04 Gerber Fmt 4.6, Leading zero omitted, Abs format (unit mm)*
G04 Created by KiCad (PCBNEW (5.1.5)-3) date 2021-02-08 23:57:45*
%MOMM*%
%LPD*%
G04 APERTURE LIST*
%ADD10C,0.300000*%
%ADD11C,1.600000*%
%ADD12O,1.600000X1.600000*%
%ADD13C,3.000000*%
%ADD14C,2.250000*%
%ADD15R,2.250000X2.250000*%
%ADD16R,1.600000X1.600000*%
%ADD17R,1.700000X1.700000*%
%ADD18O,1.700000X1.700000*%
%ADD19C,0.250000*%
%ADD20C,0.254000*%
G04 APERTURE END LIST*
D10*
X98785714Y-26678571D02*
X99285714Y-28178571D01*
X99785714Y-26678571D01*
X100214285Y-28107142D02*
X100428571Y-28178571D01*
X100785714Y-28178571D01*
X100928571Y-28107142D01*
X100999999Y-28035714D01*
X101071428Y-27892857D01*
X101071428Y-27750000D01*
X100999999Y-27607142D01*
X100928571Y-27535714D01*
X100785714Y-27464285D01*
X100499999Y-27392857D01*
X100357142Y-27321428D01*
X100285714Y-27250000D01*
X100214285Y-27107142D01*
X100214285Y-26964285D01*
X100285714Y-26821428D01*
X100357142Y-26750000D01*
X100499999Y-26678571D01*
X100857142Y-26678571D01*
X101071428Y-26750000D01*
X101357142Y-28321428D02*
X102499999Y-28321428D01*
X103357142Y-27392857D02*
X102857142Y-27392857D01*
X102857142Y-28178571D02*
X102857142Y-26678571D01*
X103571428Y-26678571D01*
X104785714Y-28178571D02*
X104785714Y-27392857D01*
X104714285Y-27250000D01*
X104571428Y-27178571D01*
X104285714Y-27178571D01*
X104142857Y-27250000D01*
X104785714Y-28107142D02*
X104642857Y-28178571D01*
X104285714Y-28178571D01*
X104142857Y-28107142D01*
X104071428Y-27964285D01*
X104071428Y-27821428D01*
X104142857Y-27678571D01*
X104285714Y-27607142D01*
X104642857Y-27607142D01*
X104785714Y-27535714D01*
X106142857Y-28178571D02*
X106142857Y-26678571D01*
X106142857Y-28107142D02*
X105999999Y-28178571D01*
X105714285Y-28178571D01*
X105571428Y-28107142D01*
X105499999Y-28035714D01*
X105428571Y-27892857D01*
X105428571Y-27464285D01*
X105499999Y-27321428D01*
X105571428Y-27250000D01*
X105714285Y-27178571D01*
X105999999Y-27178571D01*
X106142857Y-27250000D01*
X107428571Y-28107142D02*
X107285714Y-28178571D01*
X106999999Y-28178571D01*
X106857142Y-28107142D01*
X106785714Y-27964285D01*
X106785714Y-27392857D01*
X106857142Y-27250000D01*
X106999999Y-27178571D01*
X107285714Y-27178571D01*
X107428571Y-27250000D01*
X107500000Y-27392857D01*
X107500000Y-27535714D01*
X106785714Y-27678571D01*
X108142857Y-28178571D02*
X108142857Y-27178571D01*
X108142857Y-27464285D02*
X108214285Y-27321428D01*
X108285714Y-27250000D01*
X108428571Y-27178571D01*
X108571428Y-27178571D01*
X109071428Y-28178571D02*
X109071428Y-26678571D01*
X109071428Y-27250000D02*
X109214285Y-27178571D01*
X109500000Y-27178571D01*
X109642857Y-27250000D01*
X109714285Y-27321428D01*
X109785714Y-27464285D01*
X109785714Y-27892857D01*
X109714285Y-28035714D01*
X109642857Y-28107142D01*
X109500000Y-28178571D01*
X109214285Y-28178571D01*
X109071428Y-28107142D01*
X110642857Y-28178571D02*
X110500000Y-28107142D01*
X110428571Y-28035714D01*
X110357142Y-27892857D01*
X110357142Y-27464285D01*
X110428571Y-27321428D01*
X110500000Y-27250000D01*
X110642857Y-27178571D01*
X110857142Y-27178571D01*
X111000000Y-27250000D01*
X111071428Y-27321428D01*
X111142857Y-27464285D01*
X111142857Y-27892857D01*
X111071428Y-28035714D01*
X111000000Y-28107142D01*
X110857142Y-28178571D01*
X110642857Y-28178571D01*
X111642857Y-28178571D02*
X112428571Y-27178571D01*
X111642857Y-27178571D02*
X112428571Y-28178571D01*
X113999999Y-27178571D02*
X114357142Y-28178571D01*
X114714285Y-27178571D01*
X115214285Y-26821428D02*
X115285714Y-26750000D01*
X115428571Y-26678571D01*
X115785714Y-26678571D01*
X115928571Y-26750000D01*
X115999999Y-26821428D01*
X116071428Y-26964285D01*
X116071428Y-27107142D01*
X115999999Y-27321428D01*
X115142857Y-28178571D01*
X116071428Y-28178571D01*
D11*
X56000000Y-29000000D03*
D12*
X66160000Y-29000000D03*
D13*
X59875000Y-60650000D03*
D14*
X61750000Y-39000000D03*
D15*
X58000000Y-39000000D03*
D13*
X110875000Y-60650000D03*
D14*
X112750000Y-39000000D03*
D15*
X109000000Y-39000000D03*
D13*
X93875000Y-60650000D03*
D14*
X95750000Y-39000000D03*
D15*
X92000000Y-39000000D03*
D13*
X76875000Y-60650000D03*
D14*
X78750000Y-39000000D03*
D15*
X75000000Y-39000000D03*
D16*
X84620000Y-75540000D03*
D11*
X84620000Y-73000000D03*
X84620000Y-70460000D03*
X84620000Y-67920000D03*
X84620000Y-65380000D03*
X84620000Y-62840000D03*
X84620000Y-60300000D03*
X84620000Y-57760000D03*
X84620000Y-55220000D03*
X84620000Y-52680000D03*
X84620000Y-50140000D03*
X84620000Y-47600000D03*
X84620000Y-45060000D03*
X69380000Y-75540000D03*
X69380000Y-73000000D03*
X69380000Y-70460000D03*
X69380000Y-67920000D03*
X69380000Y-65380000D03*
X69380000Y-62840000D03*
X69380000Y-60300000D03*
X69380000Y-57760000D03*
X69380000Y-55220000D03*
X69380000Y-52680000D03*
X69380000Y-50140000D03*
X69380000Y-47600000D03*
X69380000Y-45060000D03*
X84620000Y-42520000D03*
X69380000Y-42520000D03*
D17*
X69000000Y-80000000D03*
X75000000Y-32000000D03*
D18*
X75000000Y-29460000D03*
X72460000Y-32000000D03*
X72460000Y-29460000D03*
X69920000Y-32000000D03*
X69920000Y-29460000D03*
D12*
X79840000Y-32000000D03*
D11*
X90000000Y-32000000D03*
X90000000Y-29000000D03*
D12*
X79840000Y-29000000D03*
X66160000Y-32000000D03*
D11*
X56000000Y-32000000D03*
D19*
X58000000Y-37625000D02*
X58000000Y-39000000D01*
X58075001Y-37549999D02*
X58000000Y-37625000D01*
X73625000Y-39000000D02*
X72174999Y-37549999D01*
X75000000Y-39000000D02*
X73625000Y-39000000D01*
X71284999Y-36784999D02*
X72000000Y-37500000D01*
X71284999Y-30824999D02*
X71284999Y-36784999D01*
X69920000Y-29460000D02*
X71284999Y-30824999D01*
X72174999Y-37549999D02*
X72000000Y-37500000D01*
X72000000Y-37500000D02*
X58075001Y-37549999D01*
X69380000Y-45060000D02*
X77440000Y-45060000D01*
X111625001Y-37875001D02*
X112750000Y-39000000D01*
X111299999Y-37549999D02*
X111625001Y-37875001D01*
X84950001Y-37549999D02*
X111299999Y-37549999D01*
X77440000Y-45060000D02*
X84950001Y-37549999D01*
X69380000Y-47600000D02*
X76400000Y-47600000D01*
X93355001Y-41394999D02*
X94625001Y-40124999D01*
X94625001Y-40124999D02*
X95750000Y-39000000D01*
X82605001Y-41394999D02*
X93355001Y-41394999D01*
X76400000Y-47600000D02*
X82605001Y-41394999D01*
X69380000Y-50140000D02*
X67500000Y-48260000D01*
X77299999Y-40450001D02*
X77625001Y-40124999D01*
X77625001Y-40124999D02*
X78750000Y-39000000D01*
X69784997Y-40450001D02*
X77299999Y-40450001D01*
X67500000Y-42734998D02*
X69784997Y-40450001D01*
X67500000Y-48260000D02*
X67500000Y-42734998D01*
X61750000Y-40590990D02*
X61750000Y-39000000D01*
X61750000Y-46181370D02*
X61750000Y-40590990D01*
X68248630Y-52680000D02*
X61750000Y-46181370D01*
X69380000Y-52680000D02*
X68248630Y-52680000D01*
D20*
G36*
X97857857Y-29530000D02*
G01*
X115840001Y-29530000D01*
X115840000Y-82340000D01*
X55160000Y-82340000D01*
X55160000Y-80850000D01*
X67511928Y-80850000D01*
X67524188Y-80974482D01*
X67560498Y-81094180D01*
X67619463Y-81204494D01*
X67698815Y-81301185D01*
X67795506Y-81380537D01*
X67905820Y-81439502D01*
X68025518Y-81475812D01*
X68150000Y-81488072D01*
X68714250Y-81485000D01*
X68873000Y-81326250D01*
X68873000Y-80127000D01*
X69127000Y-80127000D01*
X69127000Y-81326250D01*
X69285750Y-81485000D01*
X69850000Y-81488072D01*
X69974482Y-81475812D01*
X70094180Y-81439502D01*
X70204494Y-81380537D01*
X70301185Y-81301185D01*
X70380537Y-81204494D01*
X70439502Y-81094180D01*
X70475812Y-80974482D01*
X70488072Y-80850000D01*
X70485000Y-80285750D01*
X70326250Y-80127000D01*
X69127000Y-80127000D01*
X68873000Y-80127000D01*
X67673750Y-80127000D01*
X67515000Y-80285750D01*
X67511928Y-80850000D01*
X55160000Y-80850000D01*
X55160000Y-79150000D01*
X67511928Y-79150000D01*
X67515000Y-79714250D01*
X67673750Y-79873000D01*
X68873000Y-79873000D01*
X68873000Y-78673750D01*
X69127000Y-78673750D01*
X69127000Y-79873000D01*
X70326250Y-79873000D01*
X70485000Y-79714250D01*
X70488072Y-79150000D01*
X70475812Y-79025518D01*
X70439502Y-78905820D01*
X70380537Y-78795506D01*
X70301185Y-78698815D01*
X70204494Y-78619463D01*
X70094180Y-78560498D01*
X69974482Y-78524188D01*
X69850000Y-78511928D01*
X69285750Y-78515000D01*
X69127000Y-78673750D01*
X68873000Y-78673750D01*
X68714250Y-78515000D01*
X68150000Y-78511928D01*
X68025518Y-78524188D01*
X67905820Y-78560498D01*
X67795506Y-78619463D01*
X67698815Y-78698815D01*
X67619463Y-78795506D01*
X67560498Y-78905820D01*
X67524188Y-79025518D01*
X67511928Y-79150000D01*
X55160000Y-79150000D01*
X55160000Y-75398665D01*
X67945000Y-75398665D01*
X67945000Y-75681335D01*
X68000147Y-75958574D01*
X68108320Y-76219727D01*
X68265363Y-76454759D01*
X68465241Y-76654637D01*
X68700273Y-76811680D01*
X68961426Y-76919853D01*
X69238665Y-76975000D01*
X69521335Y-76975000D01*
X69798574Y-76919853D01*
X70059727Y-76811680D01*
X70294759Y-76654637D01*
X70494637Y-76454759D01*
X70571316Y-76340000D01*
X83181928Y-76340000D01*
X83194188Y-76464482D01*
X83230498Y-76584180D01*
X83289463Y-76694494D01*
X83368815Y-76791185D01*
X83465506Y-76870537D01*
X83575820Y-76929502D01*
X83695518Y-76965812D01*
X83820000Y-76978072D01*
X84334250Y-76975000D01*
X84493000Y-76816250D01*
X84493000Y-75667000D01*
X84747000Y-75667000D01*
X84747000Y-76816250D01*
X84905750Y-76975000D01*
X85420000Y-76978072D01*
X85544482Y-76965812D01*
X85664180Y-76929502D01*
X85774494Y-76870537D01*
X85871185Y-76791185D01*
X85950537Y-76694494D01*
X86009502Y-76584180D01*
X86045812Y-76464482D01*
X86058072Y-76340000D01*
X86055000Y-75825750D01*
X85896250Y-75667000D01*
X84747000Y-75667000D01*
X84493000Y-75667000D01*
X83343750Y-75667000D01*
X83185000Y-75825750D01*
X83181928Y-76340000D01*
X70571316Y-76340000D01*
X70651680Y-76219727D01*
X70759853Y-75958574D01*
X70815000Y-75681335D01*
X70815000Y-75398665D01*
X70759853Y-75121426D01*
X70651680Y-74860273D01*
X70494637Y-74625241D01*
X70294759Y-74425363D01*
X70060872Y-74269085D01*
X70121514Y-74236671D01*
X70193097Y-73992702D01*
X69380000Y-73179605D01*
X68566903Y-73992702D01*
X68638486Y-74236671D01*
X68702992Y-74267194D01*
X68700273Y-74268320D01*
X68465241Y-74425363D01*
X68265363Y-74625241D01*
X68108320Y-74860273D01*
X68000147Y-75121426D01*
X67945000Y-75398665D01*
X55160000Y-75398665D01*
X55160000Y-73070512D01*
X67939783Y-73070512D01*
X67981213Y-73350130D01*
X68076397Y-73616292D01*
X68143329Y-73741514D01*
X68387298Y-73813097D01*
X69200395Y-73000000D01*
X69559605Y-73000000D01*
X70372702Y-73813097D01*
X70616671Y-73741514D01*
X70737571Y-73486004D01*
X70806300Y-73211816D01*
X70820217Y-72929488D01*
X70778787Y-72649870D01*
X70683603Y-72383708D01*
X70616671Y-72258486D01*
X70372702Y-72186903D01*
X69559605Y-73000000D01*
X69200395Y-73000000D01*
X68387298Y-72186903D01*
X68143329Y-72258486D01*
X68022429Y-72513996D01*
X67953700Y-72788184D01*
X67939783Y-73070512D01*
X55160000Y-73070512D01*
X55160000Y-62141653D01*
X58562952Y-62141653D01*
X58718962Y-62457214D01*
X59093745Y-62648020D01*
X59498551Y-62762044D01*
X59917824Y-62794902D01*
X60335451Y-62745334D01*
X60735383Y-62615243D01*
X61031038Y-62457214D01*
X61187048Y-62141653D01*
X59875000Y-60829605D01*
X58562952Y-62141653D01*
X55160000Y-62141653D01*
X55160000Y-60692824D01*
X57730098Y-60692824D01*
X57779666Y-61110451D01*
X57909757Y-61510383D01*
X58067786Y-61806038D01*
X58383347Y-61962048D01*
X59695395Y-60650000D01*
X60054605Y-60650000D01*
X61366653Y-61962048D01*
X61682214Y-61806038D01*
X61873020Y-61431255D01*
X61987044Y-61026449D01*
X62019902Y-60607176D01*
X61970334Y-60189549D01*
X61840243Y-59789617D01*
X61682214Y-59493962D01*
X61366653Y-59337952D01*
X60054605Y-60650000D01*
X59695395Y-60650000D01*
X58383347Y-59337952D01*
X58067786Y-59493962D01*
X57876980Y-59868745D01*
X57762956Y-60273551D01*
X57730098Y-60692824D01*
X55160000Y-60692824D01*
X55160000Y-59158347D01*
X58562952Y-59158347D01*
X59875000Y-60470395D01*
X61187048Y-59158347D01*
X61031038Y-58842786D01*
X60656255Y-58651980D01*
X60251449Y-58537956D01*
X59832176Y-58505098D01*
X59414549Y-58554666D01*
X59014617Y-58684757D01*
X58718962Y-58842786D01*
X58562952Y-59158347D01*
X55160000Y-59158347D01*
X55160000Y-37875000D01*
X56236928Y-37875000D01*
X56236928Y-40125000D01*
X56249188Y-40249482D01*
X56285498Y-40369180D01*
X56344463Y-40479494D01*
X56423815Y-40576185D01*
X56520506Y-40655537D01*
X56630820Y-40714502D01*
X56750518Y-40750812D01*
X56875000Y-40763072D01*
X59125000Y-40763072D01*
X59249482Y-40750812D01*
X59369180Y-40714502D01*
X59479494Y-40655537D01*
X59576185Y-40576185D01*
X59655537Y-40479494D01*
X59714502Y-40369180D01*
X59750812Y-40249482D01*
X59763072Y-40125000D01*
X59763072Y-38303943D01*
X60133857Y-38302611D01*
X60057636Y-38486627D01*
X59990000Y-38826655D01*
X59990000Y-39173345D01*
X60057636Y-39513373D01*
X60190308Y-39833673D01*
X60382919Y-40121935D01*
X60628065Y-40367081D01*
X60916327Y-40559692D01*
X60990000Y-40590208D01*
X60990000Y-40628322D01*
X60990001Y-40628332D01*
X60990000Y-46144047D01*
X60986324Y-46181370D01*
X60990000Y-46218692D01*
X60990000Y-46218702D01*
X61000997Y-46330355D01*
X61044454Y-46473616D01*
X61115026Y-46605646D01*
X61154871Y-46654196D01*
X61209999Y-46721371D01*
X61239003Y-46745174D01*
X67684831Y-53191003D01*
X67708629Y-53220001D01*
X67824354Y-53314974D01*
X67956383Y-53385546D01*
X68099644Y-53429003D01*
X68158481Y-53434798D01*
X68265363Y-53594759D01*
X68465241Y-53794637D01*
X68697759Y-53950000D01*
X68465241Y-54105363D01*
X68265363Y-54305241D01*
X68108320Y-54540273D01*
X68000147Y-54801426D01*
X67945000Y-55078665D01*
X67945000Y-55361335D01*
X68000147Y-55638574D01*
X68108320Y-55899727D01*
X68265363Y-56134759D01*
X68465241Y-56334637D01*
X68697759Y-56490000D01*
X68465241Y-56645363D01*
X68265363Y-56845241D01*
X68108320Y-57080273D01*
X68000147Y-57341426D01*
X67945000Y-57618665D01*
X67945000Y-57901335D01*
X68000147Y-58178574D01*
X68108320Y-58439727D01*
X68265363Y-58674759D01*
X68465241Y-58874637D01*
X68697759Y-59030000D01*
X68465241Y-59185363D01*
X68265363Y-59385241D01*
X68108320Y-59620273D01*
X68000147Y-59881426D01*
X67945000Y-60158665D01*
X67945000Y-60441335D01*
X68000147Y-60718574D01*
X68108320Y-60979727D01*
X68265363Y-61214759D01*
X68465241Y-61414637D01*
X68697759Y-61570000D01*
X68465241Y-61725363D01*
X68265363Y-61925241D01*
X68108320Y-62160273D01*
X68000147Y-62421426D01*
X67945000Y-62698665D01*
X67945000Y-62981335D01*
X68000147Y-63258574D01*
X68108320Y-63519727D01*
X68265363Y-63754759D01*
X68465241Y-63954637D01*
X68697759Y-64110000D01*
X68465241Y-64265363D01*
X68265363Y-64465241D01*
X68108320Y-64700273D01*
X68000147Y-64961426D01*
X67945000Y-65238665D01*
X67945000Y-65521335D01*
X68000147Y-65798574D01*
X68108320Y-66059727D01*
X68265363Y-66294759D01*
X68465241Y-66494637D01*
X68697759Y-66650000D01*
X68465241Y-66805363D01*
X68265363Y-67005241D01*
X68108320Y-67240273D01*
X68000147Y-67501426D01*
X67945000Y-67778665D01*
X67945000Y-68061335D01*
X68000147Y-68338574D01*
X68108320Y-68599727D01*
X68265363Y-68834759D01*
X68465241Y-69034637D01*
X68697759Y-69190000D01*
X68465241Y-69345363D01*
X68265363Y-69545241D01*
X68108320Y-69780273D01*
X68000147Y-70041426D01*
X67945000Y-70318665D01*
X67945000Y-70601335D01*
X68000147Y-70878574D01*
X68108320Y-71139727D01*
X68265363Y-71374759D01*
X68465241Y-71574637D01*
X68699128Y-71730915D01*
X68638486Y-71763329D01*
X68566903Y-72007298D01*
X69380000Y-72820395D01*
X70193097Y-72007298D01*
X70121514Y-71763329D01*
X70057008Y-71732806D01*
X70059727Y-71731680D01*
X70294759Y-71574637D01*
X70494637Y-71374759D01*
X70651680Y-71139727D01*
X70759853Y-70878574D01*
X70815000Y-70601335D01*
X70815000Y-70318665D01*
X70759853Y-70041426D01*
X70651680Y-69780273D01*
X70494637Y-69545241D01*
X70294759Y-69345363D01*
X70062241Y-69190000D01*
X70294759Y-69034637D01*
X70494637Y-68834759D01*
X70651680Y-68599727D01*
X70759853Y-68338574D01*
X70815000Y-68061335D01*
X70815000Y-67778665D01*
X70759853Y-67501426D01*
X70651680Y-67240273D01*
X70494637Y-67005241D01*
X70294759Y-66805363D01*
X70062241Y-66650000D01*
X70294759Y-66494637D01*
X70494637Y-66294759D01*
X70651680Y-66059727D01*
X70759853Y-65798574D01*
X70815000Y-65521335D01*
X70815000Y-65238665D01*
X70759853Y-64961426D01*
X70651680Y-64700273D01*
X70494637Y-64465241D01*
X70294759Y-64265363D01*
X70062241Y-64110000D01*
X70294759Y-63954637D01*
X70494637Y-63754759D01*
X70651680Y-63519727D01*
X70759853Y-63258574D01*
X70815000Y-62981335D01*
X70815000Y-62698665D01*
X70759853Y-62421426D01*
X70651680Y-62160273D01*
X70639239Y-62141653D01*
X75562952Y-62141653D01*
X75718962Y-62457214D01*
X76093745Y-62648020D01*
X76498551Y-62762044D01*
X76917824Y-62794902D01*
X77335451Y-62745334D01*
X77735383Y-62615243D01*
X78031038Y-62457214D01*
X78187048Y-62141653D01*
X76875000Y-60829605D01*
X75562952Y-62141653D01*
X70639239Y-62141653D01*
X70494637Y-61925241D01*
X70294759Y-61725363D01*
X70062241Y-61570000D01*
X70294759Y-61414637D01*
X70494637Y-61214759D01*
X70651680Y-60979727D01*
X70759853Y-60718574D01*
X70764975Y-60692824D01*
X74730098Y-60692824D01*
X74779666Y-61110451D01*
X74909757Y-61510383D01*
X75067786Y-61806038D01*
X75383347Y-61962048D01*
X76695395Y-60650000D01*
X77054605Y-60650000D01*
X78366653Y-61962048D01*
X78682214Y-61806038D01*
X78873020Y-61431255D01*
X78987044Y-61026449D01*
X79019902Y-60607176D01*
X78970334Y-60189549D01*
X78840243Y-59789617D01*
X78682214Y-59493962D01*
X78366653Y-59337952D01*
X77054605Y-60650000D01*
X76695395Y-60650000D01*
X75383347Y-59337952D01*
X75067786Y-59493962D01*
X74876980Y-59868745D01*
X74762956Y-60273551D01*
X74730098Y-60692824D01*
X70764975Y-60692824D01*
X70815000Y-60441335D01*
X70815000Y-60158665D01*
X70759853Y-59881426D01*
X70651680Y-59620273D01*
X70494637Y-59385241D01*
X70294759Y-59185363D01*
X70254327Y-59158347D01*
X75562952Y-59158347D01*
X76875000Y-60470395D01*
X78187048Y-59158347D01*
X78031038Y-58842786D01*
X77656255Y-58651980D01*
X77251449Y-58537956D01*
X76832176Y-58505098D01*
X76414549Y-58554666D01*
X76014617Y-58684757D01*
X75718962Y-58842786D01*
X75562952Y-59158347D01*
X70254327Y-59158347D01*
X70062241Y-59030000D01*
X70294759Y-58874637D01*
X70494637Y-58674759D01*
X70651680Y-58439727D01*
X70759853Y-58178574D01*
X70815000Y-57901335D01*
X70815000Y-57618665D01*
X70759853Y-57341426D01*
X70651680Y-57080273D01*
X70494637Y-56845241D01*
X70294759Y-56645363D01*
X70062241Y-56490000D01*
X70294759Y-56334637D01*
X70494637Y-56134759D01*
X70651680Y-55899727D01*
X70759853Y-55638574D01*
X70815000Y-55361335D01*
X70815000Y-55078665D01*
X70759853Y-54801426D01*
X70651680Y-54540273D01*
X70494637Y-54305241D01*
X70294759Y-54105363D01*
X70062241Y-53950000D01*
X70294759Y-53794637D01*
X70494637Y-53594759D01*
X70651680Y-53359727D01*
X70759853Y-53098574D01*
X70815000Y-52821335D01*
X70815000Y-52538665D01*
X70759853Y-52261426D01*
X70651680Y-52000273D01*
X70494637Y-51765241D01*
X70294759Y-51565363D01*
X70062241Y-51410000D01*
X70294759Y-51254637D01*
X70494637Y-51054759D01*
X70651680Y-50819727D01*
X70759853Y-50558574D01*
X70815000Y-50281335D01*
X70815000Y-49998665D01*
X70759853Y-49721426D01*
X70651680Y-49460273D01*
X70494637Y-49225241D01*
X70294759Y-49025363D01*
X70062241Y-48870000D01*
X70294759Y-48714637D01*
X70494637Y-48514759D01*
X70598043Y-48360000D01*
X76362678Y-48360000D01*
X76400000Y-48363676D01*
X76437322Y-48360000D01*
X76437333Y-48360000D01*
X76548986Y-48349003D01*
X76692247Y-48305546D01*
X76824276Y-48234974D01*
X76940001Y-48140001D01*
X76963804Y-48110997D01*
X82919803Y-42154999D01*
X83229491Y-42154999D01*
X83185000Y-42378665D01*
X83185000Y-42661335D01*
X83240147Y-42938574D01*
X83348320Y-43199727D01*
X83505363Y-43434759D01*
X83705241Y-43634637D01*
X83937759Y-43790000D01*
X83705241Y-43945363D01*
X83505363Y-44145241D01*
X83348320Y-44380273D01*
X83240147Y-44641426D01*
X83185000Y-44918665D01*
X83185000Y-45201335D01*
X83240147Y-45478574D01*
X83348320Y-45739727D01*
X83505363Y-45974759D01*
X83705241Y-46174637D01*
X83937759Y-46330000D01*
X83705241Y-46485363D01*
X83505363Y-46685241D01*
X83348320Y-46920273D01*
X83240147Y-47181426D01*
X83185000Y-47458665D01*
X83185000Y-47741335D01*
X83240147Y-48018574D01*
X83348320Y-48279727D01*
X83505363Y-48514759D01*
X83705241Y-48714637D01*
X83937759Y-48870000D01*
X83705241Y-49025363D01*
X83505363Y-49225241D01*
X83348320Y-49460273D01*
X83240147Y-49721426D01*
X83185000Y-49998665D01*
X83185000Y-50281335D01*
X83240147Y-50558574D01*
X83348320Y-50819727D01*
X83505363Y-51054759D01*
X83705241Y-51254637D01*
X83937759Y-51410000D01*
X83705241Y-51565363D01*
X83505363Y-51765241D01*
X83348320Y-52000273D01*
X83240147Y-52261426D01*
X83185000Y-52538665D01*
X83185000Y-52821335D01*
X83240147Y-53098574D01*
X83348320Y-53359727D01*
X83505363Y-53594759D01*
X83705241Y-53794637D01*
X83937759Y-53950000D01*
X83705241Y-54105363D01*
X83505363Y-54305241D01*
X83348320Y-54540273D01*
X83240147Y-54801426D01*
X83185000Y-55078665D01*
X83185000Y-55361335D01*
X83240147Y-55638574D01*
X83348320Y-55899727D01*
X83505363Y-56134759D01*
X83705241Y-56334637D01*
X83937759Y-56490000D01*
X83705241Y-56645363D01*
X83505363Y-56845241D01*
X83348320Y-57080273D01*
X83240147Y-57341426D01*
X83185000Y-57618665D01*
X83185000Y-57901335D01*
X83240147Y-58178574D01*
X83348320Y-58439727D01*
X83505363Y-58674759D01*
X83705241Y-58874637D01*
X83937759Y-59030000D01*
X83705241Y-59185363D01*
X83505363Y-59385241D01*
X83348320Y-59620273D01*
X83240147Y-59881426D01*
X83185000Y-60158665D01*
X83185000Y-60441335D01*
X83240147Y-60718574D01*
X83348320Y-60979727D01*
X83505363Y-61214759D01*
X83705241Y-61414637D01*
X83937759Y-61570000D01*
X83705241Y-61725363D01*
X83505363Y-61925241D01*
X83348320Y-62160273D01*
X83240147Y-62421426D01*
X83185000Y-62698665D01*
X83185000Y-62981335D01*
X83240147Y-63258574D01*
X83348320Y-63519727D01*
X83505363Y-63754759D01*
X83705241Y-63954637D01*
X83937759Y-64110000D01*
X83705241Y-64265363D01*
X83505363Y-64465241D01*
X83348320Y-64700273D01*
X83240147Y-64961426D01*
X83185000Y-65238665D01*
X83185000Y-65521335D01*
X83240147Y-65798574D01*
X83348320Y-66059727D01*
X83505363Y-66294759D01*
X83705241Y-66494637D01*
X83937759Y-66650000D01*
X83705241Y-66805363D01*
X83505363Y-67005241D01*
X83348320Y-67240273D01*
X83240147Y-67501426D01*
X83185000Y-67778665D01*
X83185000Y-68061335D01*
X83240147Y-68338574D01*
X83348320Y-68599727D01*
X83505363Y-68834759D01*
X83705241Y-69034637D01*
X83937759Y-69190000D01*
X83705241Y-69345363D01*
X83505363Y-69545241D01*
X83348320Y-69780273D01*
X83240147Y-70041426D01*
X83185000Y-70318665D01*
X83185000Y-70601335D01*
X83240147Y-70878574D01*
X83348320Y-71139727D01*
X83505363Y-71374759D01*
X83705241Y-71574637D01*
X83937759Y-71730000D01*
X83705241Y-71885363D01*
X83505363Y-72085241D01*
X83348320Y-72320273D01*
X83240147Y-72581426D01*
X83185000Y-72858665D01*
X83185000Y-73141335D01*
X83240147Y-73418574D01*
X83348320Y-73679727D01*
X83505363Y-73914759D01*
X83703961Y-74113357D01*
X83695518Y-74114188D01*
X83575820Y-74150498D01*
X83465506Y-74209463D01*
X83368815Y-74288815D01*
X83289463Y-74385506D01*
X83230498Y-74495820D01*
X83194188Y-74615518D01*
X83181928Y-74740000D01*
X83185000Y-75254250D01*
X83343750Y-75413000D01*
X84493000Y-75413000D01*
X84493000Y-75393000D01*
X84747000Y-75393000D01*
X84747000Y-75413000D01*
X85896250Y-75413000D01*
X86055000Y-75254250D01*
X86058072Y-74740000D01*
X86045812Y-74615518D01*
X86009502Y-74495820D01*
X85950537Y-74385506D01*
X85871185Y-74288815D01*
X85774494Y-74209463D01*
X85664180Y-74150498D01*
X85544482Y-74114188D01*
X85536039Y-74113357D01*
X85734637Y-73914759D01*
X85891680Y-73679727D01*
X85999853Y-73418574D01*
X86055000Y-73141335D01*
X86055000Y-72858665D01*
X85999853Y-72581426D01*
X85891680Y-72320273D01*
X85734637Y-72085241D01*
X85534759Y-71885363D01*
X85302241Y-71730000D01*
X85534759Y-71574637D01*
X85734637Y-71374759D01*
X85891680Y-71139727D01*
X85999853Y-70878574D01*
X86055000Y-70601335D01*
X86055000Y-70318665D01*
X85999853Y-70041426D01*
X85891680Y-69780273D01*
X85734637Y-69545241D01*
X85534759Y-69345363D01*
X85302241Y-69190000D01*
X85534759Y-69034637D01*
X85734637Y-68834759D01*
X85891680Y-68599727D01*
X85999853Y-68338574D01*
X86055000Y-68061335D01*
X86055000Y-67778665D01*
X85999853Y-67501426D01*
X85891680Y-67240273D01*
X85734637Y-67005241D01*
X85534759Y-66805363D01*
X85302241Y-66650000D01*
X85534759Y-66494637D01*
X85734637Y-66294759D01*
X85891680Y-66059727D01*
X85999853Y-65798574D01*
X86055000Y-65521335D01*
X86055000Y-65238665D01*
X85999853Y-64961426D01*
X85891680Y-64700273D01*
X85734637Y-64465241D01*
X85534759Y-64265363D01*
X85302241Y-64110000D01*
X85534759Y-63954637D01*
X85734637Y-63754759D01*
X85891680Y-63519727D01*
X85999853Y-63258574D01*
X86055000Y-62981335D01*
X86055000Y-62698665D01*
X85999853Y-62421426D01*
X85891680Y-62160273D01*
X85879239Y-62141653D01*
X92562952Y-62141653D01*
X92718962Y-62457214D01*
X93093745Y-62648020D01*
X93498551Y-62762044D01*
X93917824Y-62794902D01*
X94335451Y-62745334D01*
X94735383Y-62615243D01*
X95031038Y-62457214D01*
X95187048Y-62141653D01*
X109562952Y-62141653D01*
X109718962Y-62457214D01*
X110093745Y-62648020D01*
X110498551Y-62762044D01*
X110917824Y-62794902D01*
X111335451Y-62745334D01*
X111735383Y-62615243D01*
X112031038Y-62457214D01*
X112187048Y-62141653D01*
X110875000Y-60829605D01*
X109562952Y-62141653D01*
X95187048Y-62141653D01*
X93875000Y-60829605D01*
X92562952Y-62141653D01*
X85879239Y-62141653D01*
X85734637Y-61925241D01*
X85534759Y-61725363D01*
X85302241Y-61570000D01*
X85534759Y-61414637D01*
X85734637Y-61214759D01*
X85891680Y-60979727D01*
X85999853Y-60718574D01*
X86004975Y-60692824D01*
X91730098Y-60692824D01*
X91779666Y-61110451D01*
X91909757Y-61510383D01*
X92067786Y-61806038D01*
X92383347Y-61962048D01*
X93695395Y-60650000D01*
X94054605Y-60650000D01*
X95366653Y-61962048D01*
X95682214Y-61806038D01*
X95873020Y-61431255D01*
X95987044Y-61026449D01*
X96013189Y-60692824D01*
X108730098Y-60692824D01*
X108779666Y-61110451D01*
X108909757Y-61510383D01*
X109067786Y-61806038D01*
X109383347Y-61962048D01*
X110695395Y-60650000D01*
X111054605Y-60650000D01*
X112366653Y-61962048D01*
X112682214Y-61806038D01*
X112873020Y-61431255D01*
X112987044Y-61026449D01*
X113019902Y-60607176D01*
X112970334Y-60189549D01*
X112840243Y-59789617D01*
X112682214Y-59493962D01*
X112366653Y-59337952D01*
X111054605Y-60650000D01*
X110695395Y-60650000D01*
X109383347Y-59337952D01*
X109067786Y-59493962D01*
X108876980Y-59868745D01*
X108762956Y-60273551D01*
X108730098Y-60692824D01*
X96013189Y-60692824D01*
X96019902Y-60607176D01*
X95970334Y-60189549D01*
X95840243Y-59789617D01*
X95682214Y-59493962D01*
X95366653Y-59337952D01*
X94054605Y-60650000D01*
X93695395Y-60650000D01*
X92383347Y-59337952D01*
X92067786Y-59493962D01*
X91876980Y-59868745D01*
X91762956Y-60273551D01*
X91730098Y-60692824D01*
X86004975Y-60692824D01*
X86055000Y-60441335D01*
X86055000Y-60158665D01*
X85999853Y-59881426D01*
X85891680Y-59620273D01*
X85734637Y-59385241D01*
X85534759Y-59185363D01*
X85494327Y-59158347D01*
X92562952Y-59158347D01*
X93875000Y-60470395D01*
X95187048Y-59158347D01*
X109562952Y-59158347D01*
X110875000Y-60470395D01*
X112187048Y-59158347D01*
X112031038Y-58842786D01*
X111656255Y-58651980D01*
X111251449Y-58537956D01*
X110832176Y-58505098D01*
X110414549Y-58554666D01*
X110014617Y-58684757D01*
X109718962Y-58842786D01*
X109562952Y-59158347D01*
X95187048Y-59158347D01*
X95031038Y-58842786D01*
X94656255Y-58651980D01*
X94251449Y-58537956D01*
X93832176Y-58505098D01*
X93414549Y-58554666D01*
X93014617Y-58684757D01*
X92718962Y-58842786D01*
X92562952Y-59158347D01*
X85494327Y-59158347D01*
X85302241Y-59030000D01*
X85534759Y-58874637D01*
X85734637Y-58674759D01*
X85891680Y-58439727D01*
X85999853Y-58178574D01*
X86055000Y-57901335D01*
X86055000Y-57618665D01*
X85999853Y-57341426D01*
X85891680Y-57080273D01*
X85734637Y-56845241D01*
X85534759Y-56645363D01*
X85302241Y-56490000D01*
X85534759Y-56334637D01*
X85734637Y-56134759D01*
X85891680Y-55899727D01*
X85999853Y-55638574D01*
X86055000Y-55361335D01*
X86055000Y-55078665D01*
X85999853Y-54801426D01*
X85891680Y-54540273D01*
X85734637Y-54305241D01*
X85534759Y-54105363D01*
X85302241Y-53950000D01*
X85534759Y-53794637D01*
X85734637Y-53594759D01*
X85891680Y-53359727D01*
X85999853Y-53098574D01*
X86055000Y-52821335D01*
X86055000Y-52538665D01*
X85999853Y-52261426D01*
X85891680Y-52000273D01*
X85734637Y-51765241D01*
X85534759Y-51565363D01*
X85302241Y-51410000D01*
X85534759Y-51254637D01*
X85734637Y-51054759D01*
X85891680Y-50819727D01*
X85999853Y-50558574D01*
X86055000Y-50281335D01*
X86055000Y-49998665D01*
X85999853Y-49721426D01*
X85891680Y-49460273D01*
X85734637Y-49225241D01*
X85534759Y-49025363D01*
X85302241Y-48870000D01*
X85534759Y-48714637D01*
X85734637Y-48514759D01*
X85891680Y-48279727D01*
X85999853Y-48018574D01*
X86055000Y-47741335D01*
X86055000Y-47458665D01*
X85999853Y-47181426D01*
X85891680Y-46920273D01*
X85734637Y-46685241D01*
X85534759Y-46485363D01*
X85302241Y-46330000D01*
X85534759Y-46174637D01*
X85734637Y-45974759D01*
X85891680Y-45739727D01*
X85999853Y-45478574D01*
X86055000Y-45201335D01*
X86055000Y-44918665D01*
X85999853Y-44641426D01*
X85891680Y-44380273D01*
X85734637Y-44145241D01*
X85534759Y-43945363D01*
X85302241Y-43790000D01*
X85534759Y-43634637D01*
X85734637Y-43434759D01*
X85891680Y-43199727D01*
X85999853Y-42938574D01*
X86055000Y-42661335D01*
X86055000Y-42378665D01*
X86010509Y-42154999D01*
X93317679Y-42154999D01*
X93355001Y-42158675D01*
X93392323Y-42154999D01*
X93392334Y-42154999D01*
X93503987Y-42144002D01*
X93647248Y-42100545D01*
X93779277Y-42029973D01*
X93895002Y-41935000D01*
X93918805Y-41905996D01*
X95162954Y-40661848D01*
X95236627Y-40692364D01*
X95576655Y-40760000D01*
X95923345Y-40760000D01*
X96263373Y-40692364D01*
X96583673Y-40559692D01*
X96871935Y-40367081D01*
X97117081Y-40121935D01*
X97309692Y-39833673D01*
X97442364Y-39513373D01*
X97510000Y-39173345D01*
X97510000Y-38826655D01*
X97442364Y-38486627D01*
X97369203Y-38309999D01*
X107236928Y-38309999D01*
X107236928Y-40125000D01*
X107249188Y-40249482D01*
X107285498Y-40369180D01*
X107344463Y-40479494D01*
X107423815Y-40576185D01*
X107520506Y-40655537D01*
X107630820Y-40714502D01*
X107750518Y-40750812D01*
X107875000Y-40763072D01*
X110125000Y-40763072D01*
X110249482Y-40750812D01*
X110369180Y-40714502D01*
X110479494Y-40655537D01*
X110576185Y-40576185D01*
X110655537Y-40479494D01*
X110714502Y-40369180D01*
X110750812Y-40249482D01*
X110763072Y-40125000D01*
X110763072Y-38309999D01*
X110985198Y-38309999D01*
X111088152Y-38412953D01*
X111057636Y-38486627D01*
X110990000Y-38826655D01*
X110990000Y-39173345D01*
X111057636Y-39513373D01*
X111190308Y-39833673D01*
X111382919Y-40121935D01*
X111628065Y-40367081D01*
X111916327Y-40559692D01*
X112236627Y-40692364D01*
X112576655Y-40760000D01*
X112923345Y-40760000D01*
X113263373Y-40692364D01*
X113583673Y-40559692D01*
X113871935Y-40367081D01*
X114117081Y-40121935D01*
X114309692Y-39833673D01*
X114442364Y-39513373D01*
X114510000Y-39173345D01*
X114510000Y-38826655D01*
X114442364Y-38486627D01*
X114309692Y-38166327D01*
X114117081Y-37878065D01*
X113871935Y-37632919D01*
X113583673Y-37440308D01*
X113263373Y-37307636D01*
X112923345Y-37240000D01*
X112576655Y-37240000D01*
X112236627Y-37307636D01*
X112162953Y-37338152D01*
X111863803Y-37039002D01*
X111840000Y-37009998D01*
X111724275Y-36915025D01*
X111592246Y-36844453D01*
X111448985Y-36800996D01*
X111337332Y-36789999D01*
X111337321Y-36789999D01*
X111299999Y-36786323D01*
X111262677Y-36789999D01*
X84987323Y-36789999D01*
X84950000Y-36786323D01*
X84912677Y-36789999D01*
X84912668Y-36789999D01*
X84801015Y-36800996D01*
X84657754Y-36844453D01*
X84525725Y-36915025D01*
X84410000Y-37009998D01*
X84386202Y-37038996D01*
X77125199Y-44300000D01*
X70598043Y-44300000D01*
X70494637Y-44145241D01*
X70294759Y-43945363D01*
X70062241Y-43790000D01*
X70294759Y-43634637D01*
X70494637Y-43434759D01*
X70651680Y-43199727D01*
X70759853Y-42938574D01*
X70815000Y-42661335D01*
X70815000Y-42378665D01*
X70759853Y-42101426D01*
X70651680Y-41840273D01*
X70494637Y-41605241D01*
X70294759Y-41405363D01*
X70060778Y-41249022D01*
X70099799Y-41210001D01*
X77262677Y-41210001D01*
X77299999Y-41213677D01*
X77337321Y-41210001D01*
X77337332Y-41210001D01*
X77448985Y-41199004D01*
X77592246Y-41155547D01*
X77724275Y-41084975D01*
X77840000Y-40990002D01*
X77863803Y-40960998D01*
X78162953Y-40661848D01*
X78236627Y-40692364D01*
X78576655Y-40760000D01*
X78923345Y-40760000D01*
X79263373Y-40692364D01*
X79583673Y-40559692D01*
X79871935Y-40367081D01*
X80117081Y-40121935D01*
X80309692Y-39833673D01*
X80442364Y-39513373D01*
X80510000Y-39173345D01*
X80510000Y-38826655D01*
X80442364Y-38486627D01*
X80309692Y-38166327D01*
X80117081Y-37878065D01*
X79871935Y-37632919D01*
X79583673Y-37440308D01*
X79263373Y-37307636D01*
X78923345Y-37240000D01*
X78576655Y-37240000D01*
X78236627Y-37307636D01*
X77916327Y-37440308D01*
X77628065Y-37632919D01*
X77382919Y-37878065D01*
X77190308Y-38166327D01*
X77057636Y-38486627D01*
X76990000Y-38826655D01*
X76990000Y-39173345D01*
X77057636Y-39513373D01*
X77088152Y-39587047D01*
X76985198Y-39690001D01*
X76763072Y-39690001D01*
X76763072Y-37875000D01*
X76750812Y-37750518D01*
X76714502Y-37630820D01*
X76655537Y-37520506D01*
X76576185Y-37423815D01*
X76479494Y-37344463D01*
X76369180Y-37285498D01*
X76249482Y-37249188D01*
X76125000Y-37236928D01*
X73875000Y-37236928D01*
X73750518Y-37249188D01*
X73630820Y-37285498D01*
X73520506Y-37344463D01*
X73423815Y-37423815D01*
X73344463Y-37520506D01*
X73301216Y-37601414D01*
X72760928Y-37061127D01*
X72757389Y-37056012D01*
X72708025Y-37008224D01*
X72686001Y-36986200D01*
X72681230Y-36982285D01*
X72649828Y-36951885D01*
X72623493Y-36934900D01*
X72599275Y-36915025D01*
X72560733Y-36894424D01*
X72524017Y-36870744D01*
X72494887Y-36859228D01*
X72467245Y-36844453D01*
X72425423Y-36831767D01*
X72419681Y-36829497D01*
X72398146Y-36823344D01*
X72044999Y-36470198D01*
X72044999Y-33431544D01*
X72313740Y-33485000D01*
X72606260Y-33485000D01*
X72893158Y-33427932D01*
X73163411Y-33315990D01*
X73406632Y-33153475D01*
X73538487Y-33021620D01*
X73560498Y-33094180D01*
X73619463Y-33204494D01*
X73698815Y-33301185D01*
X73795506Y-33380537D01*
X73905820Y-33439502D01*
X74025518Y-33475812D01*
X74150000Y-33488072D01*
X75850000Y-33488072D01*
X75974482Y-33475812D01*
X76094180Y-33439502D01*
X76204494Y-33380537D01*
X76301185Y-33301185D01*
X76380537Y-33204494D01*
X76439502Y-33094180D01*
X76475812Y-32974482D01*
X76488072Y-32850000D01*
X76488072Y-31858665D01*
X78405000Y-31858665D01*
X78405000Y-32141335D01*
X78460147Y-32418574D01*
X78568320Y-32679727D01*
X78725363Y-32914759D01*
X78925241Y-33114637D01*
X79160273Y-33271680D01*
X79421426Y-33379853D01*
X79698665Y-33435000D01*
X79981335Y-33435000D01*
X80258574Y-33379853D01*
X80519727Y-33271680D01*
X80754759Y-33114637D01*
X80876694Y-32992702D01*
X89186903Y-32992702D01*
X89258486Y-33236671D01*
X89513996Y-33357571D01*
X89788184Y-33426300D01*
X90070512Y-33440217D01*
X90350130Y-33398787D01*
X90616292Y-33303603D01*
X90741514Y-33236671D01*
X90813097Y-32992702D01*
X90000000Y-32179605D01*
X89186903Y-32992702D01*
X80876694Y-32992702D01*
X80954637Y-32914759D01*
X81111680Y-32679727D01*
X81219853Y-32418574D01*
X81275000Y-32141335D01*
X81275000Y-32070512D01*
X88559783Y-32070512D01*
X88601213Y-32350130D01*
X88696397Y-32616292D01*
X88763329Y-32741514D01*
X89007298Y-32813097D01*
X89820395Y-32000000D01*
X90179605Y-32000000D01*
X90992702Y-32813097D01*
X91236671Y-32741514D01*
X91357571Y-32486004D01*
X91426300Y-32211816D01*
X91440217Y-31929488D01*
X91398787Y-31649870D01*
X91303603Y-31383708D01*
X91236671Y-31258486D01*
X90992702Y-31186903D01*
X90179605Y-32000000D01*
X89820395Y-32000000D01*
X89007298Y-31186903D01*
X88763329Y-31258486D01*
X88642429Y-31513996D01*
X88573700Y-31788184D01*
X88559783Y-32070512D01*
X81275000Y-32070512D01*
X81275000Y-31858665D01*
X81219853Y-31581426D01*
X81111680Y-31320273D01*
X80954637Y-31085241D01*
X80876694Y-31007298D01*
X89186903Y-31007298D01*
X90000000Y-31820395D01*
X90813097Y-31007298D01*
X90741514Y-30763329D01*
X90486004Y-30642429D01*
X90211816Y-30573700D01*
X89929488Y-30559783D01*
X89649870Y-30601213D01*
X89383708Y-30696397D01*
X89258486Y-30763329D01*
X89186903Y-31007298D01*
X80876694Y-31007298D01*
X80754759Y-30885363D01*
X80519727Y-30728320D01*
X80258574Y-30620147D01*
X79981335Y-30565000D01*
X79698665Y-30565000D01*
X79421426Y-30620147D01*
X79160273Y-30728320D01*
X78925241Y-30885363D01*
X78725363Y-31085241D01*
X78568320Y-31320273D01*
X78460147Y-31581426D01*
X78405000Y-31858665D01*
X76488072Y-31858665D01*
X76488072Y-31150000D01*
X76475812Y-31025518D01*
X76439502Y-30905820D01*
X76380537Y-30795506D01*
X76301185Y-30698815D01*
X76204494Y-30619463D01*
X76094180Y-30560498D01*
X76021620Y-30538487D01*
X76153475Y-30406632D01*
X76315990Y-30163411D01*
X76427932Y-29893158D01*
X76485000Y-29606260D01*
X76485000Y-29313740D01*
X76427932Y-29026842D01*
X76358272Y-28858665D01*
X78405000Y-28858665D01*
X78405000Y-29141335D01*
X78460147Y-29418574D01*
X78568320Y-29679727D01*
X78725363Y-29914759D01*
X78925241Y-30114637D01*
X79160273Y-30271680D01*
X79421426Y-30379853D01*
X79698665Y-30435000D01*
X79981335Y-30435000D01*
X80258574Y-30379853D01*
X80519727Y-30271680D01*
X80754759Y-30114637D01*
X80876694Y-29992702D01*
X89186903Y-29992702D01*
X89258486Y-30236671D01*
X89513996Y-30357571D01*
X89788184Y-30426300D01*
X90070512Y-30440217D01*
X90350130Y-30398787D01*
X90616292Y-30303603D01*
X90741514Y-30236671D01*
X90813097Y-29992702D01*
X90000000Y-29179605D01*
X89186903Y-29992702D01*
X80876694Y-29992702D01*
X80954637Y-29914759D01*
X81111680Y-29679727D01*
X81219853Y-29418574D01*
X81275000Y-29141335D01*
X81275000Y-29070512D01*
X88559783Y-29070512D01*
X88601213Y-29350130D01*
X88696397Y-29616292D01*
X88763329Y-29741514D01*
X89007298Y-29813097D01*
X89820395Y-29000000D01*
X90179605Y-29000000D01*
X90992702Y-29813097D01*
X91236671Y-29741514D01*
X91357571Y-29486004D01*
X91426300Y-29211816D01*
X91440217Y-28929488D01*
X91398787Y-28649870D01*
X91303603Y-28383708D01*
X91236671Y-28258486D01*
X90992702Y-28186903D01*
X90179605Y-29000000D01*
X89820395Y-29000000D01*
X89007298Y-28186903D01*
X88763329Y-28258486D01*
X88642429Y-28513996D01*
X88573700Y-28788184D01*
X88559783Y-29070512D01*
X81275000Y-29070512D01*
X81275000Y-28858665D01*
X81219853Y-28581426D01*
X81111680Y-28320273D01*
X80954637Y-28085241D01*
X80876694Y-28007298D01*
X89186903Y-28007298D01*
X90000000Y-28820395D01*
X90813097Y-28007298D01*
X90741514Y-27763329D01*
X90486004Y-27642429D01*
X90211816Y-27573700D01*
X89929488Y-27559783D01*
X89649870Y-27601213D01*
X89383708Y-27696397D01*
X89258486Y-27763329D01*
X89186903Y-28007298D01*
X80876694Y-28007298D01*
X80754759Y-27885363D01*
X80519727Y-27728320D01*
X80258574Y-27620147D01*
X79981335Y-27565000D01*
X79698665Y-27565000D01*
X79421426Y-27620147D01*
X79160273Y-27728320D01*
X78925241Y-27885363D01*
X78725363Y-28085241D01*
X78568320Y-28320273D01*
X78460147Y-28581426D01*
X78405000Y-28858665D01*
X76358272Y-28858665D01*
X76315990Y-28756589D01*
X76153475Y-28513368D01*
X75946632Y-28306525D01*
X75703411Y-28144010D01*
X75433158Y-28032068D01*
X75146260Y-27975000D01*
X74853740Y-27975000D01*
X74566842Y-28032068D01*
X74296589Y-28144010D01*
X74053368Y-28306525D01*
X73846525Y-28513368D01*
X73730000Y-28687760D01*
X73613475Y-28513368D01*
X73406632Y-28306525D01*
X73163411Y-28144010D01*
X72893158Y-28032068D01*
X72606260Y-27975000D01*
X72313740Y-27975000D01*
X72026842Y-28032068D01*
X71756589Y-28144010D01*
X71513368Y-28306525D01*
X71306525Y-28513368D01*
X71190000Y-28687760D01*
X71073475Y-28513368D01*
X70866632Y-28306525D01*
X70623411Y-28144010D01*
X70353158Y-28032068D01*
X70066260Y-27975000D01*
X69773740Y-27975000D01*
X69486842Y-28032068D01*
X69216589Y-28144010D01*
X68973368Y-28306525D01*
X68766525Y-28513368D01*
X68604010Y-28756589D01*
X68492068Y-29026842D01*
X68435000Y-29313740D01*
X68435000Y-29606260D01*
X68492068Y-29893158D01*
X68604010Y-30163411D01*
X68766525Y-30406632D01*
X68973368Y-30613475D01*
X69149406Y-30731100D01*
X68919731Y-30902412D01*
X68724822Y-31118645D01*
X68575843Y-31368748D01*
X68478519Y-31643109D01*
X68599186Y-31873000D01*
X69793000Y-31873000D01*
X69793000Y-31853000D01*
X70047000Y-31853000D01*
X70047000Y-31873000D01*
X70067000Y-31873000D01*
X70067000Y-32127000D01*
X70047000Y-32127000D01*
X70047000Y-33320155D01*
X70276890Y-33441476D01*
X70424099Y-33396825D01*
X70524999Y-33348765D01*
X70525000Y-36745291D01*
X58110962Y-36789865D01*
X58075000Y-36786323D01*
X58036317Y-36790133D01*
X58034940Y-36790138D01*
X57998928Y-36793816D01*
X57926015Y-36800997D01*
X57924701Y-36801396D01*
X57923327Y-36801536D01*
X57852864Y-36823187D01*
X57782755Y-36844454D01*
X57781545Y-36845101D01*
X57780223Y-36845507D01*
X57715363Y-36880476D01*
X57650725Y-36915026D01*
X57649662Y-36915899D01*
X57648448Y-36916553D01*
X57591886Y-36963313D01*
X57563998Y-36986200D01*
X57563026Y-36987172D01*
X57533065Y-37011941D01*
X57510237Y-37039961D01*
X57489000Y-37061198D01*
X57459999Y-37084999D01*
X57405848Y-37150983D01*
X57365026Y-37200724D01*
X57345674Y-37236928D01*
X56875000Y-37236928D01*
X56750518Y-37249188D01*
X56630820Y-37285498D01*
X56520506Y-37344463D01*
X56423815Y-37423815D01*
X56344463Y-37520506D01*
X56285498Y-37630820D01*
X56249188Y-37750518D01*
X56236928Y-37875000D01*
X55160000Y-37875000D01*
X55160000Y-33019607D01*
X55186903Y-32992704D01*
X55258486Y-33236671D01*
X55513996Y-33357571D01*
X55788184Y-33426300D01*
X56070512Y-33440217D01*
X56350130Y-33398787D01*
X56616292Y-33303603D01*
X56741514Y-33236671D01*
X56813097Y-32992702D01*
X56000000Y-32179605D01*
X55985858Y-32193748D01*
X55806253Y-32014143D01*
X55820395Y-32000000D01*
X56179605Y-32000000D01*
X56992702Y-32813097D01*
X57236671Y-32741514D01*
X57357571Y-32486004D01*
X57426300Y-32211816D01*
X57440217Y-31929488D01*
X57429724Y-31858665D01*
X64725000Y-31858665D01*
X64725000Y-32141335D01*
X64780147Y-32418574D01*
X64888320Y-32679727D01*
X65045363Y-32914759D01*
X65245241Y-33114637D01*
X65480273Y-33271680D01*
X65741426Y-33379853D01*
X66018665Y-33435000D01*
X66301335Y-33435000D01*
X66578574Y-33379853D01*
X66839727Y-33271680D01*
X67074759Y-33114637D01*
X67274637Y-32914759D01*
X67431680Y-32679727D01*
X67539853Y-32418574D01*
X67552122Y-32356891D01*
X68478519Y-32356891D01*
X68575843Y-32631252D01*
X68724822Y-32881355D01*
X68919731Y-33097588D01*
X69153080Y-33271641D01*
X69415901Y-33396825D01*
X69563110Y-33441476D01*
X69793000Y-33320155D01*
X69793000Y-32127000D01*
X68599186Y-32127000D01*
X68478519Y-32356891D01*
X67552122Y-32356891D01*
X67595000Y-32141335D01*
X67595000Y-31858665D01*
X67539853Y-31581426D01*
X67431680Y-31320273D01*
X67274637Y-31085241D01*
X67074759Y-30885363D01*
X66839727Y-30728320D01*
X66578574Y-30620147D01*
X66301335Y-30565000D01*
X66018665Y-30565000D01*
X65741426Y-30620147D01*
X65480273Y-30728320D01*
X65245241Y-30885363D01*
X65045363Y-31085241D01*
X64888320Y-31320273D01*
X64780147Y-31581426D01*
X64725000Y-31858665D01*
X57429724Y-31858665D01*
X57398787Y-31649870D01*
X57303603Y-31383708D01*
X57236671Y-31258486D01*
X56992702Y-31186903D01*
X56179605Y-32000000D01*
X55820395Y-32000000D01*
X55806253Y-31985858D01*
X55985858Y-31806253D01*
X56000000Y-31820395D01*
X56813097Y-31007298D01*
X56741514Y-30763329D01*
X56486004Y-30642429D01*
X56211816Y-30573700D01*
X55929488Y-30559783D01*
X55649870Y-30601213D01*
X55383708Y-30696397D01*
X55258486Y-30763329D01*
X55186903Y-31007296D01*
X55160000Y-30980393D01*
X55160000Y-30019607D01*
X55186903Y-29992704D01*
X55258486Y-30236671D01*
X55513996Y-30357571D01*
X55788184Y-30426300D01*
X56070512Y-30440217D01*
X56350130Y-30398787D01*
X56616292Y-30303603D01*
X56741514Y-30236671D01*
X56813097Y-29992702D01*
X56000000Y-29179605D01*
X55985858Y-29193748D01*
X55806253Y-29014143D01*
X55820395Y-29000000D01*
X56179605Y-29000000D01*
X56992702Y-29813097D01*
X57236671Y-29741514D01*
X57357571Y-29486004D01*
X57426300Y-29211816D01*
X57440217Y-28929488D01*
X57429724Y-28858665D01*
X64725000Y-28858665D01*
X64725000Y-29141335D01*
X64780147Y-29418574D01*
X64888320Y-29679727D01*
X65045363Y-29914759D01*
X65245241Y-30114637D01*
X65480273Y-30271680D01*
X65741426Y-30379853D01*
X66018665Y-30435000D01*
X66301335Y-30435000D01*
X66578574Y-30379853D01*
X66839727Y-30271680D01*
X67074759Y-30114637D01*
X67274637Y-29914759D01*
X67431680Y-29679727D01*
X67539853Y-29418574D01*
X67595000Y-29141335D01*
X67595000Y-28858665D01*
X67539853Y-28581426D01*
X67431680Y-28320273D01*
X67274637Y-28085241D01*
X67074759Y-27885363D01*
X66839727Y-27728320D01*
X66578574Y-27620147D01*
X66301335Y-27565000D01*
X66018665Y-27565000D01*
X65741426Y-27620147D01*
X65480273Y-27728320D01*
X65245241Y-27885363D01*
X65045363Y-28085241D01*
X64888320Y-28320273D01*
X64780147Y-28581426D01*
X64725000Y-28858665D01*
X57429724Y-28858665D01*
X57398787Y-28649870D01*
X57303603Y-28383708D01*
X57236671Y-28258486D01*
X56992702Y-28186903D01*
X56179605Y-29000000D01*
X55820395Y-29000000D01*
X55806253Y-28985858D01*
X55985858Y-28806253D01*
X56000000Y-28820395D01*
X56813097Y-28007298D01*
X56741514Y-27763329D01*
X56486004Y-27642429D01*
X56211816Y-27573700D01*
X55929488Y-27559783D01*
X55649870Y-27601213D01*
X55383708Y-27696397D01*
X55258486Y-27763329D01*
X55186903Y-28007296D01*
X55160000Y-27980393D01*
X55160000Y-26660000D01*
X97857857Y-26660000D01*
X97857857Y-29530000D01*
G37*
X97857857Y-29530000D02*
X115840001Y-29530000D01*
X115840000Y-82340000D01*
X55160000Y-82340000D01*
X55160000Y-80850000D01*
X67511928Y-80850000D01*
X67524188Y-80974482D01*
X67560498Y-81094180D01*
X67619463Y-81204494D01*
X67698815Y-81301185D01*
X67795506Y-81380537D01*
X67905820Y-81439502D01*
X68025518Y-81475812D01*
X68150000Y-81488072D01*
X68714250Y-81485000D01*
X68873000Y-81326250D01*
X68873000Y-80127000D01*
X69127000Y-80127000D01*
X69127000Y-81326250D01*
X69285750Y-81485000D01*
X69850000Y-81488072D01*
X69974482Y-81475812D01*
X70094180Y-81439502D01*
X70204494Y-81380537D01*
X70301185Y-81301185D01*
X70380537Y-81204494D01*
X70439502Y-81094180D01*
X70475812Y-80974482D01*
X70488072Y-80850000D01*
X70485000Y-80285750D01*
X70326250Y-80127000D01*
X69127000Y-80127000D01*
X68873000Y-80127000D01*
X67673750Y-80127000D01*
X67515000Y-80285750D01*
X67511928Y-80850000D01*
X55160000Y-80850000D01*
X55160000Y-79150000D01*
X67511928Y-79150000D01*
X67515000Y-79714250D01*
X67673750Y-79873000D01*
X68873000Y-79873000D01*
X68873000Y-78673750D01*
X69127000Y-78673750D01*
X69127000Y-79873000D01*
X70326250Y-79873000D01*
X70485000Y-79714250D01*
X70488072Y-79150000D01*
X70475812Y-79025518D01*
X70439502Y-78905820D01*
X70380537Y-78795506D01*
X70301185Y-78698815D01*
X70204494Y-78619463D01*
X70094180Y-78560498D01*
X69974482Y-78524188D01*
X69850000Y-78511928D01*
X69285750Y-78515000D01*
X69127000Y-78673750D01*
X68873000Y-78673750D01*
X68714250Y-78515000D01*
X68150000Y-78511928D01*
X68025518Y-78524188D01*
X67905820Y-78560498D01*
X67795506Y-78619463D01*
X67698815Y-78698815D01*
X67619463Y-78795506D01*
X67560498Y-78905820D01*
X67524188Y-79025518D01*
X67511928Y-79150000D01*
X55160000Y-79150000D01*
X55160000Y-75398665D01*
X67945000Y-75398665D01*
X67945000Y-75681335D01*
X68000147Y-75958574D01*
X68108320Y-76219727D01*
X68265363Y-76454759D01*
X68465241Y-76654637D01*
X68700273Y-76811680D01*
X68961426Y-76919853D01*
X69238665Y-76975000D01*
X69521335Y-76975000D01*
X69798574Y-76919853D01*
X70059727Y-76811680D01*
X70294759Y-76654637D01*
X70494637Y-76454759D01*
X70571316Y-76340000D01*
X83181928Y-76340000D01*
X83194188Y-76464482D01*
X83230498Y-76584180D01*
X83289463Y-76694494D01*
X83368815Y-76791185D01*
X83465506Y-76870537D01*
X83575820Y-76929502D01*
X83695518Y-76965812D01*
X83820000Y-76978072D01*
X84334250Y-76975000D01*
X84493000Y-76816250D01*
X84493000Y-75667000D01*
X84747000Y-75667000D01*
X84747000Y-76816250D01*
X84905750Y-76975000D01*
X85420000Y-76978072D01*
X85544482Y-76965812D01*
X85664180Y-76929502D01*
X85774494Y-76870537D01*
X85871185Y-76791185D01*
X85950537Y-76694494D01*
X86009502Y-76584180D01*
X86045812Y-76464482D01*
X86058072Y-76340000D01*
X86055000Y-75825750D01*
X85896250Y-75667000D01*
X84747000Y-75667000D01*
X84493000Y-75667000D01*
X83343750Y-75667000D01*
X83185000Y-75825750D01*
X83181928Y-76340000D01*
X70571316Y-76340000D01*
X70651680Y-76219727D01*
X70759853Y-75958574D01*
X70815000Y-75681335D01*
X70815000Y-75398665D01*
X70759853Y-75121426D01*
X70651680Y-74860273D01*
X70494637Y-74625241D01*
X70294759Y-74425363D01*
X70060872Y-74269085D01*
X70121514Y-74236671D01*
X70193097Y-73992702D01*
X69380000Y-73179605D01*
X68566903Y-73992702D01*
X68638486Y-74236671D01*
X68702992Y-74267194D01*
X68700273Y-74268320D01*
X68465241Y-74425363D01*
X68265363Y-74625241D01*
X68108320Y-74860273D01*
X68000147Y-75121426D01*
X67945000Y-75398665D01*
X55160000Y-75398665D01*
X55160000Y-73070512D01*
X67939783Y-73070512D01*
X67981213Y-73350130D01*
X68076397Y-73616292D01*
X68143329Y-73741514D01*
X68387298Y-73813097D01*
X69200395Y-73000000D01*
X69559605Y-73000000D01*
X70372702Y-73813097D01*
X70616671Y-73741514D01*
X70737571Y-73486004D01*
X70806300Y-73211816D01*
X70820217Y-72929488D01*
X70778787Y-72649870D01*
X70683603Y-72383708D01*
X70616671Y-72258486D01*
X70372702Y-72186903D01*
X69559605Y-73000000D01*
X69200395Y-73000000D01*
X68387298Y-72186903D01*
X68143329Y-72258486D01*
X68022429Y-72513996D01*
X67953700Y-72788184D01*
X67939783Y-73070512D01*
X55160000Y-73070512D01*
X55160000Y-62141653D01*
X58562952Y-62141653D01*
X58718962Y-62457214D01*
X59093745Y-62648020D01*
X59498551Y-62762044D01*
X59917824Y-62794902D01*
X60335451Y-62745334D01*
X60735383Y-62615243D01*
X61031038Y-62457214D01*
X61187048Y-62141653D01*
X59875000Y-60829605D01*
X58562952Y-62141653D01*
X55160000Y-62141653D01*
X55160000Y-60692824D01*
X57730098Y-60692824D01*
X57779666Y-61110451D01*
X57909757Y-61510383D01*
X58067786Y-61806038D01*
X58383347Y-61962048D01*
X59695395Y-60650000D01*
X60054605Y-60650000D01*
X61366653Y-61962048D01*
X61682214Y-61806038D01*
X61873020Y-61431255D01*
X61987044Y-61026449D01*
X62019902Y-60607176D01*
X61970334Y-60189549D01*
X61840243Y-59789617D01*
X61682214Y-59493962D01*
X61366653Y-59337952D01*
X60054605Y-60650000D01*
X59695395Y-60650000D01*
X58383347Y-59337952D01*
X58067786Y-59493962D01*
X57876980Y-59868745D01*
X57762956Y-60273551D01*
X57730098Y-60692824D01*
X55160000Y-60692824D01*
X55160000Y-59158347D01*
X58562952Y-59158347D01*
X59875000Y-60470395D01*
X61187048Y-59158347D01*
X61031038Y-58842786D01*
X60656255Y-58651980D01*
X60251449Y-58537956D01*
X59832176Y-58505098D01*
X59414549Y-58554666D01*
X59014617Y-58684757D01*
X58718962Y-58842786D01*
X58562952Y-59158347D01*
X55160000Y-59158347D01*
X55160000Y-37875000D01*
X56236928Y-37875000D01*
X56236928Y-40125000D01*
X56249188Y-40249482D01*
X56285498Y-40369180D01*
X56344463Y-40479494D01*
X56423815Y-40576185D01*
X56520506Y-40655537D01*
X56630820Y-40714502D01*
X56750518Y-40750812D01*
X56875000Y-40763072D01*
X59125000Y-40763072D01*
X59249482Y-40750812D01*
X59369180Y-40714502D01*
X59479494Y-40655537D01*
X59576185Y-40576185D01*
X59655537Y-40479494D01*
X59714502Y-40369180D01*
X59750812Y-40249482D01*
X59763072Y-40125000D01*
X59763072Y-38303943D01*
X60133857Y-38302611D01*
X60057636Y-38486627D01*
X59990000Y-38826655D01*
X59990000Y-39173345D01*
X60057636Y-39513373D01*
X60190308Y-39833673D01*
X60382919Y-40121935D01*
X60628065Y-40367081D01*
X60916327Y-40559692D01*
X60990000Y-40590208D01*
X60990000Y-40628322D01*
X60990001Y-40628332D01*
X60990000Y-46144047D01*
X60986324Y-46181370D01*
X60990000Y-46218692D01*
X60990000Y-46218702D01*
X61000997Y-46330355D01*
X61044454Y-46473616D01*
X61115026Y-46605646D01*
X61154871Y-46654196D01*
X61209999Y-46721371D01*
X61239003Y-46745174D01*
X67684831Y-53191003D01*
X67708629Y-53220001D01*
X67824354Y-53314974D01*
X67956383Y-53385546D01*
X68099644Y-53429003D01*
X68158481Y-53434798D01*
X68265363Y-53594759D01*
X68465241Y-53794637D01*
X68697759Y-53950000D01*
X68465241Y-54105363D01*
X68265363Y-54305241D01*
X68108320Y-54540273D01*
X68000147Y-54801426D01*
X67945000Y-55078665D01*
X67945000Y-55361335D01*
X68000147Y-55638574D01*
X68108320Y-55899727D01*
X68265363Y-56134759D01*
X68465241Y-56334637D01*
X68697759Y-56490000D01*
X68465241Y-56645363D01*
X68265363Y-56845241D01*
X68108320Y-57080273D01*
X68000147Y-57341426D01*
X67945000Y-57618665D01*
X67945000Y-57901335D01*
X68000147Y-58178574D01*
X68108320Y-58439727D01*
X68265363Y-58674759D01*
X68465241Y-58874637D01*
X68697759Y-59030000D01*
X68465241Y-59185363D01*
X68265363Y-59385241D01*
X68108320Y-59620273D01*
X68000147Y-59881426D01*
X67945000Y-60158665D01*
X67945000Y-60441335D01*
X68000147Y-60718574D01*
X68108320Y-60979727D01*
X68265363Y-61214759D01*
X68465241Y-61414637D01*
X68697759Y-61570000D01*
X68465241Y-61725363D01*
X68265363Y-61925241D01*
X68108320Y-62160273D01*
X68000147Y-62421426D01*
X67945000Y-62698665D01*
X67945000Y-62981335D01*
X68000147Y-63258574D01*
X68108320Y-63519727D01*
X68265363Y-63754759D01*
X68465241Y-63954637D01*
X68697759Y-64110000D01*
X68465241Y-64265363D01*
X68265363Y-64465241D01*
X68108320Y-64700273D01*
X68000147Y-64961426D01*
X67945000Y-65238665D01*
X67945000Y-65521335D01*
X68000147Y-65798574D01*
X68108320Y-66059727D01*
X68265363Y-66294759D01*
X68465241Y-66494637D01*
X68697759Y-66650000D01*
X68465241Y-66805363D01*
X68265363Y-67005241D01*
X68108320Y-67240273D01*
X68000147Y-67501426D01*
X67945000Y-67778665D01*
X67945000Y-68061335D01*
X68000147Y-68338574D01*
X68108320Y-68599727D01*
X68265363Y-68834759D01*
X68465241Y-69034637D01*
X68697759Y-69190000D01*
X68465241Y-69345363D01*
X68265363Y-69545241D01*
X68108320Y-69780273D01*
X68000147Y-70041426D01*
X67945000Y-70318665D01*
X67945000Y-70601335D01*
X68000147Y-70878574D01*
X68108320Y-71139727D01*
X68265363Y-71374759D01*
X68465241Y-71574637D01*
X68699128Y-71730915D01*
X68638486Y-71763329D01*
X68566903Y-72007298D01*
X69380000Y-72820395D01*
X70193097Y-72007298D01*
X70121514Y-71763329D01*
X70057008Y-71732806D01*
X70059727Y-71731680D01*
X70294759Y-71574637D01*
X70494637Y-71374759D01*
X70651680Y-71139727D01*
X70759853Y-70878574D01*
X70815000Y-70601335D01*
X70815000Y-70318665D01*
X70759853Y-70041426D01*
X70651680Y-69780273D01*
X70494637Y-69545241D01*
X70294759Y-69345363D01*
X70062241Y-69190000D01*
X70294759Y-69034637D01*
X70494637Y-68834759D01*
X70651680Y-68599727D01*
X70759853Y-68338574D01*
X70815000Y-68061335D01*
X70815000Y-67778665D01*
X70759853Y-67501426D01*
X70651680Y-67240273D01*
X70494637Y-67005241D01*
X70294759Y-66805363D01*
X70062241Y-66650000D01*
X70294759Y-66494637D01*
X70494637Y-66294759D01*
X70651680Y-66059727D01*
X70759853Y-65798574D01*
X70815000Y-65521335D01*
X70815000Y-65238665D01*
X70759853Y-64961426D01*
X70651680Y-64700273D01*
X70494637Y-64465241D01*
X70294759Y-64265363D01*
X70062241Y-64110000D01*
X70294759Y-63954637D01*
X70494637Y-63754759D01*
X70651680Y-63519727D01*
X70759853Y-63258574D01*
X70815000Y-62981335D01*
X70815000Y-62698665D01*
X70759853Y-62421426D01*
X70651680Y-62160273D01*
X70639239Y-62141653D01*
X75562952Y-62141653D01*
X75718962Y-62457214D01*
X76093745Y-62648020D01*
X76498551Y-62762044D01*
X76917824Y-62794902D01*
X77335451Y-62745334D01*
X77735383Y-62615243D01*
X78031038Y-62457214D01*
X78187048Y-62141653D01*
X76875000Y-60829605D01*
X75562952Y-62141653D01*
X70639239Y-62141653D01*
X70494637Y-61925241D01*
X70294759Y-61725363D01*
X70062241Y-61570000D01*
X70294759Y-61414637D01*
X70494637Y-61214759D01*
X70651680Y-60979727D01*
X70759853Y-60718574D01*
X70764975Y-60692824D01*
X74730098Y-60692824D01*
X74779666Y-61110451D01*
X74909757Y-61510383D01*
X75067786Y-61806038D01*
X75383347Y-61962048D01*
X76695395Y-60650000D01*
X77054605Y-60650000D01*
X78366653Y-61962048D01*
X78682214Y-61806038D01*
X78873020Y-61431255D01*
X78987044Y-61026449D01*
X79019902Y-60607176D01*
X78970334Y-60189549D01*
X78840243Y-59789617D01*
X78682214Y-59493962D01*
X78366653Y-59337952D01*
X77054605Y-60650000D01*
X76695395Y-60650000D01*
X75383347Y-59337952D01*
X75067786Y-59493962D01*
X74876980Y-59868745D01*
X74762956Y-60273551D01*
X74730098Y-60692824D01*
X70764975Y-60692824D01*
X70815000Y-60441335D01*
X70815000Y-60158665D01*
X70759853Y-59881426D01*
X70651680Y-59620273D01*
X70494637Y-59385241D01*
X70294759Y-59185363D01*
X70254327Y-59158347D01*
X75562952Y-59158347D01*
X76875000Y-60470395D01*
X78187048Y-59158347D01*
X78031038Y-58842786D01*
X77656255Y-58651980D01*
X77251449Y-58537956D01*
X76832176Y-58505098D01*
X76414549Y-58554666D01*
X76014617Y-58684757D01*
X75718962Y-58842786D01*
X75562952Y-59158347D01*
X70254327Y-59158347D01*
X70062241Y-59030000D01*
X70294759Y-58874637D01*
X70494637Y-58674759D01*
X70651680Y-58439727D01*
X70759853Y-58178574D01*
X70815000Y-57901335D01*
X70815000Y-57618665D01*
X70759853Y-57341426D01*
X70651680Y-57080273D01*
X70494637Y-56845241D01*
X70294759Y-56645363D01*
X70062241Y-56490000D01*
X70294759Y-56334637D01*
X70494637Y-56134759D01*
X70651680Y-55899727D01*
X70759853Y-55638574D01*
X70815000Y-55361335D01*
X70815000Y-55078665D01*
X70759853Y-54801426D01*
X70651680Y-54540273D01*
X70494637Y-54305241D01*
X70294759Y-54105363D01*
X70062241Y-53950000D01*
X70294759Y-53794637D01*
X70494637Y-53594759D01*
X70651680Y-53359727D01*
X70759853Y-53098574D01*
X70815000Y-52821335D01*
X70815000Y-52538665D01*
X70759853Y-52261426D01*
X70651680Y-52000273D01*
X70494637Y-51765241D01*
X70294759Y-51565363D01*
X70062241Y-51410000D01*
X70294759Y-51254637D01*
X70494637Y-51054759D01*
X70651680Y-50819727D01*
X70759853Y-50558574D01*
X70815000Y-50281335D01*
X70815000Y-49998665D01*
X70759853Y-49721426D01*
X70651680Y-49460273D01*
X70494637Y-49225241D01*
X70294759Y-49025363D01*
X70062241Y-48870000D01*
X70294759Y-48714637D01*
X70494637Y-48514759D01*
X70598043Y-48360000D01*
X76362678Y-48360000D01*
X76400000Y-48363676D01*
X76437322Y-48360000D01*
X76437333Y-48360000D01*
X76548986Y-48349003D01*
X76692247Y-48305546D01*
X76824276Y-48234974D01*
X76940001Y-48140001D01*
X76963804Y-48110997D01*
X82919803Y-42154999D01*
X83229491Y-42154999D01*
X83185000Y-42378665D01*
X83185000Y-42661335D01*
X83240147Y-42938574D01*
X83348320Y-43199727D01*
X83505363Y-43434759D01*
X83705241Y-43634637D01*
X83937759Y-43790000D01*
X83705241Y-43945363D01*
X83505363Y-44145241D01*
X83348320Y-44380273D01*
X83240147Y-44641426D01*
X83185000Y-44918665D01*
X83185000Y-45201335D01*
X83240147Y-45478574D01*
X83348320Y-45739727D01*
X83505363Y-45974759D01*
X83705241Y-46174637D01*
X83937759Y-46330000D01*
X83705241Y-46485363D01*
X83505363Y-46685241D01*
X83348320Y-46920273D01*
X83240147Y-47181426D01*
X83185000Y-47458665D01*
X83185000Y-47741335D01*
X83240147Y-48018574D01*
X83348320Y-48279727D01*
X83505363Y-48514759D01*
X83705241Y-48714637D01*
X83937759Y-48870000D01*
X83705241Y-49025363D01*
X83505363Y-49225241D01*
X83348320Y-49460273D01*
X83240147Y-49721426D01*
X83185000Y-49998665D01*
X83185000Y-50281335D01*
X83240147Y-50558574D01*
X83348320Y-50819727D01*
X83505363Y-51054759D01*
X83705241Y-51254637D01*
X83937759Y-51410000D01*
X83705241Y-51565363D01*
X83505363Y-51765241D01*
X83348320Y-52000273D01*
X83240147Y-52261426D01*
X83185000Y-52538665D01*
X83185000Y-52821335D01*
X83240147Y-53098574D01*
X83348320Y-53359727D01*
X83505363Y-53594759D01*
X83705241Y-53794637D01*
X83937759Y-53950000D01*
X83705241Y-54105363D01*
X83505363Y-54305241D01*
X83348320Y-54540273D01*
X83240147Y-54801426D01*
X83185000Y-55078665D01*
X83185000Y-55361335D01*
X83240147Y-55638574D01*
X83348320Y-55899727D01*
X83505363Y-56134759D01*
X83705241Y-56334637D01*
X83937759Y-56490000D01*
X83705241Y-56645363D01*
X83505363Y-56845241D01*
X83348320Y-57080273D01*
X83240147Y-57341426D01*
X83185000Y-57618665D01*
X83185000Y-57901335D01*
X83240147Y-58178574D01*
X83348320Y-58439727D01*
X83505363Y-58674759D01*
X83705241Y-58874637D01*
X83937759Y-59030000D01*
X83705241Y-59185363D01*
X83505363Y-59385241D01*
X83348320Y-59620273D01*
X83240147Y-59881426D01*
X83185000Y-60158665D01*
X83185000Y-60441335D01*
X83240147Y-60718574D01*
X83348320Y-60979727D01*
X83505363Y-61214759D01*
X83705241Y-61414637D01*
X83937759Y-61570000D01*
X83705241Y-61725363D01*
X83505363Y-61925241D01*
X83348320Y-62160273D01*
X83240147Y-62421426D01*
X83185000Y-62698665D01*
X83185000Y-62981335D01*
X83240147Y-63258574D01*
X83348320Y-63519727D01*
X83505363Y-63754759D01*
X83705241Y-63954637D01*
X83937759Y-64110000D01*
X83705241Y-64265363D01*
X83505363Y-64465241D01*
X83348320Y-64700273D01*
X83240147Y-64961426D01*
X83185000Y-65238665D01*
X83185000Y-65521335D01*
X83240147Y-65798574D01*
X83348320Y-66059727D01*
X83505363Y-66294759D01*
X83705241Y-66494637D01*
X83937759Y-66650000D01*
X83705241Y-66805363D01*
X83505363Y-67005241D01*
X83348320Y-67240273D01*
X83240147Y-67501426D01*
X83185000Y-67778665D01*
X83185000Y-68061335D01*
X83240147Y-68338574D01*
X83348320Y-68599727D01*
X83505363Y-68834759D01*
X83705241Y-69034637D01*
X83937759Y-69190000D01*
X83705241Y-69345363D01*
X83505363Y-69545241D01*
X83348320Y-69780273D01*
X83240147Y-70041426D01*
X83185000Y-70318665D01*
X83185000Y-70601335D01*
X83240147Y-70878574D01*
X83348320Y-71139727D01*
X83505363Y-71374759D01*
X83705241Y-71574637D01*
X83937759Y-71730000D01*
X83705241Y-71885363D01*
X83505363Y-72085241D01*
X83348320Y-72320273D01*
X83240147Y-72581426D01*
X83185000Y-72858665D01*
X83185000Y-73141335D01*
X83240147Y-73418574D01*
X83348320Y-73679727D01*
X83505363Y-73914759D01*
X83703961Y-74113357D01*
X83695518Y-74114188D01*
X83575820Y-74150498D01*
X83465506Y-74209463D01*
X83368815Y-74288815D01*
X83289463Y-74385506D01*
X83230498Y-74495820D01*
X83194188Y-74615518D01*
X83181928Y-74740000D01*
X83185000Y-75254250D01*
X83343750Y-75413000D01*
X84493000Y-75413000D01*
X84493000Y-75393000D01*
X84747000Y-75393000D01*
X84747000Y-75413000D01*
X85896250Y-75413000D01*
X86055000Y-75254250D01*
X86058072Y-74740000D01*
X86045812Y-74615518D01*
X86009502Y-74495820D01*
X85950537Y-74385506D01*
X85871185Y-74288815D01*
X85774494Y-74209463D01*
X85664180Y-74150498D01*
X85544482Y-74114188D01*
X85536039Y-74113357D01*
X85734637Y-73914759D01*
X85891680Y-73679727D01*
X85999853Y-73418574D01*
X86055000Y-73141335D01*
X86055000Y-72858665D01*
X85999853Y-72581426D01*
X85891680Y-72320273D01*
X85734637Y-72085241D01*
X85534759Y-71885363D01*
X85302241Y-71730000D01*
X85534759Y-71574637D01*
X85734637Y-71374759D01*
X85891680Y-71139727D01*
X85999853Y-70878574D01*
X86055000Y-70601335D01*
X86055000Y-70318665D01*
X85999853Y-70041426D01*
X85891680Y-69780273D01*
X85734637Y-69545241D01*
X85534759Y-69345363D01*
X85302241Y-69190000D01*
X85534759Y-69034637D01*
X85734637Y-68834759D01*
X85891680Y-68599727D01*
X85999853Y-68338574D01*
X86055000Y-68061335D01*
X86055000Y-67778665D01*
X85999853Y-67501426D01*
X85891680Y-67240273D01*
X85734637Y-67005241D01*
X85534759Y-66805363D01*
X85302241Y-66650000D01*
X85534759Y-66494637D01*
X85734637Y-66294759D01*
X85891680Y-66059727D01*
X85999853Y-65798574D01*
X86055000Y-65521335D01*
X86055000Y-65238665D01*
X85999853Y-64961426D01*
X85891680Y-64700273D01*
X85734637Y-64465241D01*
X85534759Y-64265363D01*
X85302241Y-64110000D01*
X85534759Y-63954637D01*
X85734637Y-63754759D01*
X85891680Y-63519727D01*
X85999853Y-63258574D01*
X86055000Y-62981335D01*
X86055000Y-62698665D01*
X85999853Y-62421426D01*
X85891680Y-62160273D01*
X85879239Y-62141653D01*
X92562952Y-62141653D01*
X92718962Y-62457214D01*
X93093745Y-62648020D01*
X93498551Y-62762044D01*
X93917824Y-62794902D01*
X94335451Y-62745334D01*
X94735383Y-62615243D01*
X95031038Y-62457214D01*
X95187048Y-62141653D01*
X109562952Y-62141653D01*
X109718962Y-62457214D01*
X110093745Y-62648020D01*
X110498551Y-62762044D01*
X110917824Y-62794902D01*
X111335451Y-62745334D01*
X111735383Y-62615243D01*
X112031038Y-62457214D01*
X112187048Y-62141653D01*
X110875000Y-60829605D01*
X109562952Y-62141653D01*
X95187048Y-62141653D01*
X93875000Y-60829605D01*
X92562952Y-62141653D01*
X85879239Y-62141653D01*
X85734637Y-61925241D01*
X85534759Y-61725363D01*
X85302241Y-61570000D01*
X85534759Y-61414637D01*
X85734637Y-61214759D01*
X85891680Y-60979727D01*
X85999853Y-60718574D01*
X86004975Y-60692824D01*
X91730098Y-60692824D01*
X91779666Y-61110451D01*
X91909757Y-61510383D01*
X92067786Y-61806038D01*
X92383347Y-61962048D01*
X93695395Y-60650000D01*
X94054605Y-60650000D01*
X95366653Y-61962048D01*
X95682214Y-61806038D01*
X95873020Y-61431255D01*
X95987044Y-61026449D01*
X96013189Y-60692824D01*
X108730098Y-60692824D01*
X108779666Y-61110451D01*
X108909757Y-61510383D01*
X109067786Y-61806038D01*
X109383347Y-61962048D01*
X110695395Y-60650000D01*
X111054605Y-60650000D01*
X112366653Y-61962048D01*
X112682214Y-61806038D01*
X112873020Y-61431255D01*
X112987044Y-61026449D01*
X113019902Y-60607176D01*
X112970334Y-60189549D01*
X112840243Y-59789617D01*
X112682214Y-59493962D01*
X112366653Y-59337952D01*
X111054605Y-60650000D01*
X110695395Y-60650000D01*
X109383347Y-59337952D01*
X109067786Y-59493962D01*
X108876980Y-59868745D01*
X108762956Y-60273551D01*
X108730098Y-60692824D01*
X96013189Y-60692824D01*
X96019902Y-60607176D01*
X95970334Y-60189549D01*
X95840243Y-59789617D01*
X95682214Y-59493962D01*
X95366653Y-59337952D01*
X94054605Y-60650000D01*
X93695395Y-60650000D01*
X92383347Y-59337952D01*
X92067786Y-59493962D01*
X91876980Y-59868745D01*
X91762956Y-60273551D01*
X91730098Y-60692824D01*
X86004975Y-60692824D01*
X86055000Y-60441335D01*
X86055000Y-60158665D01*
X85999853Y-59881426D01*
X85891680Y-59620273D01*
X85734637Y-59385241D01*
X85534759Y-59185363D01*
X85494327Y-59158347D01*
X92562952Y-59158347D01*
X93875000Y-60470395D01*
X95187048Y-59158347D01*
X109562952Y-59158347D01*
X110875000Y-60470395D01*
X112187048Y-59158347D01*
X112031038Y-58842786D01*
X111656255Y-58651980D01*
X111251449Y-58537956D01*
X110832176Y-58505098D01*
X110414549Y-58554666D01*
X110014617Y-58684757D01*
X109718962Y-58842786D01*
X109562952Y-59158347D01*
X95187048Y-59158347D01*
X95031038Y-58842786D01*
X94656255Y-58651980D01*
X94251449Y-58537956D01*
X93832176Y-58505098D01*
X93414549Y-58554666D01*
X93014617Y-58684757D01*
X92718962Y-58842786D01*
X92562952Y-59158347D01*
X85494327Y-59158347D01*
X85302241Y-59030000D01*
X85534759Y-58874637D01*
X85734637Y-58674759D01*
X85891680Y-58439727D01*
X85999853Y-58178574D01*
X86055000Y-57901335D01*
X86055000Y-57618665D01*
X85999853Y-57341426D01*
X85891680Y-57080273D01*
X85734637Y-56845241D01*
X85534759Y-56645363D01*
X85302241Y-56490000D01*
X85534759Y-56334637D01*
X85734637Y-56134759D01*
X85891680Y-55899727D01*
X85999853Y-55638574D01*
X86055000Y-55361335D01*
X86055000Y-55078665D01*
X85999853Y-54801426D01*
X85891680Y-54540273D01*
X85734637Y-54305241D01*
X85534759Y-54105363D01*
X85302241Y-53950000D01*
X85534759Y-53794637D01*
X85734637Y-53594759D01*
X85891680Y-53359727D01*
X85999853Y-53098574D01*
X86055000Y-52821335D01*
X86055000Y-52538665D01*
X85999853Y-52261426D01*
X85891680Y-52000273D01*
X85734637Y-51765241D01*
X85534759Y-51565363D01*
X85302241Y-51410000D01*
X85534759Y-51254637D01*
X85734637Y-51054759D01*
X85891680Y-50819727D01*
X85999853Y-50558574D01*
X86055000Y-50281335D01*
X86055000Y-49998665D01*
X85999853Y-49721426D01*
X85891680Y-49460273D01*
X85734637Y-49225241D01*
X85534759Y-49025363D01*
X85302241Y-48870000D01*
X85534759Y-48714637D01*
X85734637Y-48514759D01*
X85891680Y-48279727D01*
X85999853Y-48018574D01*
X86055000Y-47741335D01*
X86055000Y-47458665D01*
X85999853Y-47181426D01*
X85891680Y-46920273D01*
X85734637Y-46685241D01*
X85534759Y-46485363D01*
X85302241Y-46330000D01*
X85534759Y-46174637D01*
X85734637Y-45974759D01*
X85891680Y-45739727D01*
X85999853Y-45478574D01*
X86055000Y-45201335D01*
X86055000Y-44918665D01*
X85999853Y-44641426D01*
X85891680Y-44380273D01*
X85734637Y-44145241D01*
X85534759Y-43945363D01*
X85302241Y-43790000D01*
X85534759Y-43634637D01*
X85734637Y-43434759D01*
X85891680Y-43199727D01*
X85999853Y-42938574D01*
X86055000Y-42661335D01*
X86055000Y-42378665D01*
X86010509Y-42154999D01*
X93317679Y-42154999D01*
X93355001Y-42158675D01*
X93392323Y-42154999D01*
X93392334Y-42154999D01*
X93503987Y-42144002D01*
X93647248Y-42100545D01*
X93779277Y-42029973D01*
X93895002Y-41935000D01*
X93918805Y-41905996D01*
X95162954Y-40661848D01*
X95236627Y-40692364D01*
X95576655Y-40760000D01*
X95923345Y-40760000D01*
X96263373Y-40692364D01*
X96583673Y-40559692D01*
X96871935Y-40367081D01*
X97117081Y-40121935D01*
X97309692Y-39833673D01*
X97442364Y-39513373D01*
X97510000Y-39173345D01*
X97510000Y-38826655D01*
X97442364Y-38486627D01*
X97369203Y-38309999D01*
X107236928Y-38309999D01*
X107236928Y-40125000D01*
X107249188Y-40249482D01*
X107285498Y-40369180D01*
X107344463Y-40479494D01*
X107423815Y-40576185D01*
X107520506Y-40655537D01*
X107630820Y-40714502D01*
X107750518Y-40750812D01*
X107875000Y-40763072D01*
X110125000Y-40763072D01*
X110249482Y-40750812D01*
X110369180Y-40714502D01*
X110479494Y-40655537D01*
X110576185Y-40576185D01*
X110655537Y-40479494D01*
X110714502Y-40369180D01*
X110750812Y-40249482D01*
X110763072Y-40125000D01*
X110763072Y-38309999D01*
X110985198Y-38309999D01*
X111088152Y-38412953D01*
X111057636Y-38486627D01*
X110990000Y-38826655D01*
X110990000Y-39173345D01*
X111057636Y-39513373D01*
X111190308Y-39833673D01*
X111382919Y-40121935D01*
X111628065Y-40367081D01*
X111916327Y-40559692D01*
X112236627Y-40692364D01*
X112576655Y-40760000D01*
X112923345Y-40760000D01*
X113263373Y-40692364D01*
X113583673Y-40559692D01*
X113871935Y-40367081D01*
X114117081Y-40121935D01*
X114309692Y-39833673D01*
X114442364Y-39513373D01*
X114510000Y-39173345D01*
X114510000Y-38826655D01*
X114442364Y-38486627D01*
X114309692Y-38166327D01*
X114117081Y-37878065D01*
X113871935Y-37632919D01*
X113583673Y-37440308D01*
X113263373Y-37307636D01*
X112923345Y-37240000D01*
X112576655Y-37240000D01*
X112236627Y-37307636D01*
X112162953Y-37338152D01*
X111863803Y-37039002D01*
X111840000Y-37009998D01*
X111724275Y-36915025D01*
X111592246Y-36844453D01*
X111448985Y-36800996D01*
X111337332Y-36789999D01*
X111337321Y-36789999D01*
X111299999Y-36786323D01*
X111262677Y-36789999D01*
X84987323Y-36789999D01*
X84950000Y-36786323D01*
X84912677Y-36789999D01*
X84912668Y-36789999D01*
X84801015Y-36800996D01*
X84657754Y-36844453D01*
X84525725Y-36915025D01*
X84410000Y-37009998D01*
X84386202Y-37038996D01*
X77125199Y-44300000D01*
X70598043Y-44300000D01*
X70494637Y-44145241D01*
X70294759Y-43945363D01*
X70062241Y-43790000D01*
X70294759Y-43634637D01*
X70494637Y-43434759D01*
X70651680Y-43199727D01*
X70759853Y-42938574D01*
X70815000Y-42661335D01*
X70815000Y-42378665D01*
X70759853Y-42101426D01*
X70651680Y-41840273D01*
X70494637Y-41605241D01*
X70294759Y-41405363D01*
X70060778Y-41249022D01*
X70099799Y-41210001D01*
X77262677Y-41210001D01*
X77299999Y-41213677D01*
X77337321Y-41210001D01*
X77337332Y-41210001D01*
X77448985Y-41199004D01*
X77592246Y-41155547D01*
X77724275Y-41084975D01*
X77840000Y-40990002D01*
X77863803Y-40960998D01*
X78162953Y-40661848D01*
X78236627Y-40692364D01*
X78576655Y-40760000D01*
X78923345Y-40760000D01*
X79263373Y-40692364D01*
X79583673Y-40559692D01*
X79871935Y-40367081D01*
X80117081Y-40121935D01*
X80309692Y-39833673D01*
X80442364Y-39513373D01*
X80510000Y-39173345D01*
X80510000Y-38826655D01*
X80442364Y-38486627D01*
X80309692Y-38166327D01*
X80117081Y-37878065D01*
X79871935Y-37632919D01*
X79583673Y-37440308D01*
X79263373Y-37307636D01*
X78923345Y-37240000D01*
X78576655Y-37240000D01*
X78236627Y-37307636D01*
X77916327Y-37440308D01*
X77628065Y-37632919D01*
X77382919Y-37878065D01*
X77190308Y-38166327D01*
X77057636Y-38486627D01*
X76990000Y-38826655D01*
X76990000Y-39173345D01*
X77057636Y-39513373D01*
X77088152Y-39587047D01*
X76985198Y-39690001D01*
X76763072Y-39690001D01*
X76763072Y-37875000D01*
X76750812Y-37750518D01*
X76714502Y-37630820D01*
X76655537Y-37520506D01*
X76576185Y-37423815D01*
X76479494Y-37344463D01*
X76369180Y-37285498D01*
X76249482Y-37249188D01*
X76125000Y-37236928D01*
X73875000Y-37236928D01*
X73750518Y-37249188D01*
X73630820Y-37285498D01*
X73520506Y-37344463D01*
X73423815Y-37423815D01*
X73344463Y-37520506D01*
X73301216Y-37601414D01*
X72760928Y-37061127D01*
X72757389Y-37056012D01*
X72708025Y-37008224D01*
X72686001Y-36986200D01*
X72681230Y-36982285D01*
X72649828Y-36951885D01*
X72623493Y-36934900D01*
X72599275Y-36915025D01*
X72560733Y-36894424D01*
X72524017Y-36870744D01*
X72494887Y-36859228D01*
X72467245Y-36844453D01*
X72425423Y-36831767D01*
X72419681Y-36829497D01*
X72398146Y-36823344D01*
X72044999Y-36470198D01*
X72044999Y-33431544D01*
X72313740Y-33485000D01*
X72606260Y-33485000D01*
X72893158Y-33427932D01*
X73163411Y-33315990D01*
X73406632Y-33153475D01*
X73538487Y-33021620D01*
X73560498Y-33094180D01*
X73619463Y-33204494D01*
X73698815Y-33301185D01*
X73795506Y-33380537D01*
X73905820Y-33439502D01*
X74025518Y-33475812D01*
X74150000Y-33488072D01*
X75850000Y-33488072D01*
X75974482Y-33475812D01*
X76094180Y-33439502D01*
X76204494Y-33380537D01*
X76301185Y-33301185D01*
X76380537Y-33204494D01*
X76439502Y-33094180D01*
X76475812Y-32974482D01*
X76488072Y-32850000D01*
X76488072Y-31858665D01*
X78405000Y-31858665D01*
X78405000Y-32141335D01*
X78460147Y-32418574D01*
X78568320Y-32679727D01*
X78725363Y-32914759D01*
X78925241Y-33114637D01*
X79160273Y-33271680D01*
X79421426Y-33379853D01*
X79698665Y-33435000D01*
X79981335Y-33435000D01*
X80258574Y-33379853D01*
X80519727Y-33271680D01*
X80754759Y-33114637D01*
X80876694Y-32992702D01*
X89186903Y-32992702D01*
X89258486Y-33236671D01*
X89513996Y-33357571D01*
X89788184Y-33426300D01*
X90070512Y-33440217D01*
X90350130Y-33398787D01*
X90616292Y-33303603D01*
X90741514Y-33236671D01*
X90813097Y-32992702D01*
X90000000Y-32179605D01*
X89186903Y-32992702D01*
X80876694Y-32992702D01*
X80954637Y-32914759D01*
X81111680Y-32679727D01*
X81219853Y-32418574D01*
X81275000Y-32141335D01*
X81275000Y-32070512D01*
X88559783Y-32070512D01*
X88601213Y-32350130D01*
X88696397Y-32616292D01*
X88763329Y-32741514D01*
X89007298Y-32813097D01*
X89820395Y-32000000D01*
X90179605Y-32000000D01*
X90992702Y-32813097D01*
X91236671Y-32741514D01*
X91357571Y-32486004D01*
X91426300Y-32211816D01*
X91440217Y-31929488D01*
X91398787Y-31649870D01*
X91303603Y-31383708D01*
X91236671Y-31258486D01*
X90992702Y-31186903D01*
X90179605Y-32000000D01*
X89820395Y-32000000D01*
X89007298Y-31186903D01*
X88763329Y-31258486D01*
X88642429Y-31513996D01*
X88573700Y-31788184D01*
X88559783Y-32070512D01*
X81275000Y-32070512D01*
X81275000Y-31858665D01*
X81219853Y-31581426D01*
X81111680Y-31320273D01*
X80954637Y-31085241D01*
X80876694Y-31007298D01*
X89186903Y-31007298D01*
X90000000Y-31820395D01*
X90813097Y-31007298D01*
X90741514Y-30763329D01*
X90486004Y-30642429D01*
X90211816Y-30573700D01*
X89929488Y-30559783D01*
X89649870Y-30601213D01*
X89383708Y-30696397D01*
X89258486Y-30763329D01*
X89186903Y-31007298D01*
X80876694Y-31007298D01*
X80754759Y-30885363D01*
X80519727Y-30728320D01*
X80258574Y-30620147D01*
X79981335Y-30565000D01*
X79698665Y-30565000D01*
X79421426Y-30620147D01*
X79160273Y-30728320D01*
X78925241Y-30885363D01*
X78725363Y-31085241D01*
X78568320Y-31320273D01*
X78460147Y-31581426D01*
X78405000Y-31858665D01*
X76488072Y-31858665D01*
X76488072Y-31150000D01*
X76475812Y-31025518D01*
X76439502Y-30905820D01*
X76380537Y-30795506D01*
X76301185Y-30698815D01*
X76204494Y-30619463D01*
X76094180Y-30560498D01*
X76021620Y-30538487D01*
X76153475Y-30406632D01*
X76315990Y-30163411D01*
X76427932Y-29893158D01*
X76485000Y-29606260D01*
X76485000Y-29313740D01*
X76427932Y-29026842D01*
X76358272Y-28858665D01*
X78405000Y-28858665D01*
X78405000Y-29141335D01*
X78460147Y-29418574D01*
X78568320Y-29679727D01*
X78725363Y-29914759D01*
X78925241Y-30114637D01*
X79160273Y-30271680D01*
X79421426Y-30379853D01*
X79698665Y-30435000D01*
X79981335Y-30435000D01*
X80258574Y-30379853D01*
X80519727Y-30271680D01*
X80754759Y-30114637D01*
X80876694Y-29992702D01*
X89186903Y-29992702D01*
X89258486Y-30236671D01*
X89513996Y-30357571D01*
X89788184Y-30426300D01*
X90070512Y-30440217D01*
X90350130Y-30398787D01*
X90616292Y-30303603D01*
X90741514Y-30236671D01*
X90813097Y-29992702D01*
X90000000Y-29179605D01*
X89186903Y-29992702D01*
X80876694Y-29992702D01*
X80954637Y-29914759D01*
X81111680Y-29679727D01*
X81219853Y-29418574D01*
X81275000Y-29141335D01*
X81275000Y-29070512D01*
X88559783Y-29070512D01*
X88601213Y-29350130D01*
X88696397Y-29616292D01*
X88763329Y-29741514D01*
X89007298Y-29813097D01*
X89820395Y-29000000D01*
X90179605Y-29000000D01*
X90992702Y-29813097D01*
X91236671Y-29741514D01*
X91357571Y-29486004D01*
X91426300Y-29211816D01*
X91440217Y-28929488D01*
X91398787Y-28649870D01*
X91303603Y-28383708D01*
X91236671Y-28258486D01*
X90992702Y-28186903D01*
X90179605Y-29000000D01*
X89820395Y-29000000D01*
X89007298Y-28186903D01*
X88763329Y-28258486D01*
X88642429Y-28513996D01*
X88573700Y-28788184D01*
X88559783Y-29070512D01*
X81275000Y-29070512D01*
X81275000Y-28858665D01*
X81219853Y-28581426D01*
X81111680Y-28320273D01*
X80954637Y-28085241D01*
X80876694Y-28007298D01*
X89186903Y-28007298D01*
X90000000Y-28820395D01*
X90813097Y-28007298D01*
X90741514Y-27763329D01*
X90486004Y-27642429D01*
X90211816Y-27573700D01*
X89929488Y-27559783D01*
X89649870Y-27601213D01*
X89383708Y-27696397D01*
X89258486Y-27763329D01*
X89186903Y-28007298D01*
X80876694Y-28007298D01*
X80754759Y-27885363D01*
X80519727Y-27728320D01*
X80258574Y-27620147D01*
X79981335Y-27565000D01*
X79698665Y-27565000D01*
X79421426Y-27620147D01*
X79160273Y-27728320D01*
X78925241Y-27885363D01*
X78725363Y-28085241D01*
X78568320Y-28320273D01*
X78460147Y-28581426D01*
X78405000Y-28858665D01*
X76358272Y-28858665D01*
X76315990Y-28756589D01*
X76153475Y-28513368D01*
X75946632Y-28306525D01*
X75703411Y-28144010D01*
X75433158Y-28032068D01*
X75146260Y-27975000D01*
X74853740Y-27975000D01*
X74566842Y-28032068D01*
X74296589Y-28144010D01*
X74053368Y-28306525D01*
X73846525Y-28513368D01*
X73730000Y-28687760D01*
X73613475Y-28513368D01*
X73406632Y-28306525D01*
X73163411Y-28144010D01*
X72893158Y-28032068D01*
X72606260Y-27975000D01*
X72313740Y-27975000D01*
X72026842Y-28032068D01*
X71756589Y-28144010D01*
X71513368Y-28306525D01*
X71306525Y-28513368D01*
X71190000Y-28687760D01*
X71073475Y-28513368D01*
X70866632Y-28306525D01*
X70623411Y-28144010D01*
X70353158Y-28032068D01*
X70066260Y-27975000D01*
X69773740Y-27975000D01*
X69486842Y-28032068D01*
X69216589Y-28144010D01*
X68973368Y-28306525D01*
X68766525Y-28513368D01*
X68604010Y-28756589D01*
X68492068Y-29026842D01*
X68435000Y-29313740D01*
X68435000Y-29606260D01*
X68492068Y-29893158D01*
X68604010Y-30163411D01*
X68766525Y-30406632D01*
X68973368Y-30613475D01*
X69149406Y-30731100D01*
X68919731Y-30902412D01*
X68724822Y-31118645D01*
X68575843Y-31368748D01*
X68478519Y-31643109D01*
X68599186Y-31873000D01*
X69793000Y-31873000D01*
X69793000Y-31853000D01*
X70047000Y-31853000D01*
X70047000Y-31873000D01*
X70067000Y-31873000D01*
X70067000Y-32127000D01*
X70047000Y-32127000D01*
X70047000Y-33320155D01*
X70276890Y-33441476D01*
X70424099Y-33396825D01*
X70524999Y-33348765D01*
X70525000Y-36745291D01*
X58110962Y-36789865D01*
X58075000Y-36786323D01*
X58036317Y-36790133D01*
X58034940Y-36790138D01*
X57998928Y-36793816D01*
X57926015Y-36800997D01*
X57924701Y-36801396D01*
X57923327Y-36801536D01*
X57852864Y-36823187D01*
X57782755Y-36844454D01*
X57781545Y-36845101D01*
X57780223Y-36845507D01*
X57715363Y-36880476D01*
X57650725Y-36915026D01*
X57649662Y-36915899D01*
X57648448Y-36916553D01*
X57591886Y-36963313D01*
X57563998Y-36986200D01*
X57563026Y-36987172D01*
X57533065Y-37011941D01*
X57510237Y-37039961D01*
X57489000Y-37061198D01*
X57459999Y-37084999D01*
X57405848Y-37150983D01*
X57365026Y-37200724D01*
X57345674Y-37236928D01*
X56875000Y-37236928D01*
X56750518Y-37249188D01*
X56630820Y-37285498D01*
X56520506Y-37344463D01*
X56423815Y-37423815D01*
X56344463Y-37520506D01*
X56285498Y-37630820D01*
X56249188Y-37750518D01*
X56236928Y-37875000D01*
X55160000Y-37875000D01*
X55160000Y-33019607D01*
X55186903Y-32992704D01*
X55258486Y-33236671D01*
X55513996Y-33357571D01*
X55788184Y-33426300D01*
X56070512Y-33440217D01*
X56350130Y-33398787D01*
X56616292Y-33303603D01*
X56741514Y-33236671D01*
X56813097Y-32992702D01*
X56000000Y-32179605D01*
X55985858Y-32193748D01*
X55806253Y-32014143D01*
X55820395Y-32000000D01*
X56179605Y-32000000D01*
X56992702Y-32813097D01*
X57236671Y-32741514D01*
X57357571Y-32486004D01*
X57426300Y-32211816D01*
X57440217Y-31929488D01*
X57429724Y-31858665D01*
X64725000Y-31858665D01*
X64725000Y-32141335D01*
X64780147Y-32418574D01*
X64888320Y-32679727D01*
X65045363Y-32914759D01*
X65245241Y-33114637D01*
X65480273Y-33271680D01*
X65741426Y-33379853D01*
X66018665Y-33435000D01*
X66301335Y-33435000D01*
X66578574Y-33379853D01*
X66839727Y-33271680D01*
X67074759Y-33114637D01*
X67274637Y-32914759D01*
X67431680Y-32679727D01*
X67539853Y-32418574D01*
X67552122Y-32356891D01*
X68478519Y-32356891D01*
X68575843Y-32631252D01*
X68724822Y-32881355D01*
X68919731Y-33097588D01*
X69153080Y-33271641D01*
X69415901Y-33396825D01*
X69563110Y-33441476D01*
X69793000Y-33320155D01*
X69793000Y-32127000D01*
X68599186Y-32127000D01*
X68478519Y-32356891D01*
X67552122Y-32356891D01*
X67595000Y-32141335D01*
X67595000Y-31858665D01*
X67539853Y-31581426D01*
X67431680Y-31320273D01*
X67274637Y-31085241D01*
X67074759Y-30885363D01*
X66839727Y-30728320D01*
X66578574Y-30620147D01*
X66301335Y-30565000D01*
X66018665Y-30565000D01*
X65741426Y-30620147D01*
X65480273Y-30728320D01*
X65245241Y-30885363D01*
X65045363Y-31085241D01*
X64888320Y-31320273D01*
X64780147Y-31581426D01*
X64725000Y-31858665D01*
X57429724Y-31858665D01*
X57398787Y-31649870D01*
X57303603Y-31383708D01*
X57236671Y-31258486D01*
X56992702Y-31186903D01*
X56179605Y-32000000D01*
X55820395Y-32000000D01*
X55806253Y-31985858D01*
X55985858Y-31806253D01*
X56000000Y-31820395D01*
X56813097Y-31007298D01*
X56741514Y-30763329D01*
X56486004Y-30642429D01*
X56211816Y-30573700D01*
X55929488Y-30559783D01*
X55649870Y-30601213D01*
X55383708Y-30696397D01*
X55258486Y-30763329D01*
X55186903Y-31007296D01*
X55160000Y-30980393D01*
X55160000Y-30019607D01*
X55186903Y-29992704D01*
X55258486Y-30236671D01*
X55513996Y-30357571D01*
X55788184Y-30426300D01*
X56070512Y-30440217D01*
X56350130Y-30398787D01*
X56616292Y-30303603D01*
X56741514Y-30236671D01*
X56813097Y-29992702D01*
X56000000Y-29179605D01*
X55985858Y-29193748D01*
X55806253Y-29014143D01*
X55820395Y-29000000D01*
X56179605Y-29000000D01*
X56992702Y-29813097D01*
X57236671Y-29741514D01*
X57357571Y-29486004D01*
X57426300Y-29211816D01*
X57440217Y-28929488D01*
X57429724Y-28858665D01*
X64725000Y-28858665D01*
X64725000Y-29141335D01*
X64780147Y-29418574D01*
X64888320Y-29679727D01*
X65045363Y-29914759D01*
X65245241Y-30114637D01*
X65480273Y-30271680D01*
X65741426Y-30379853D01*
X66018665Y-30435000D01*
X66301335Y-30435000D01*
X66578574Y-30379853D01*
X66839727Y-30271680D01*
X67074759Y-30114637D01*
X67274637Y-29914759D01*
X67431680Y-29679727D01*
X67539853Y-29418574D01*
X67595000Y-29141335D01*
X67595000Y-28858665D01*
X67539853Y-28581426D01*
X67431680Y-28320273D01*
X67274637Y-28085241D01*
X67074759Y-27885363D01*
X66839727Y-27728320D01*
X66578574Y-27620147D01*
X66301335Y-27565000D01*
X66018665Y-27565000D01*
X65741426Y-27620147D01*
X65480273Y-27728320D01*
X65245241Y-27885363D01*
X65045363Y-28085241D01*
X64888320Y-28320273D01*
X64780147Y-28581426D01*
X64725000Y-28858665D01*
X57429724Y-28858665D01*
X57398787Y-28649870D01*
X57303603Y-28383708D01*
X57236671Y-28258486D01*
X56992702Y-28186903D01*
X56179605Y-29000000D01*
X55820395Y-29000000D01*
X55806253Y-28985858D01*
X55985858Y-28806253D01*
X56000000Y-28820395D01*
X56813097Y-28007298D01*
X56741514Y-27763329D01*
X56486004Y-27642429D01*
X56211816Y-27573700D01*
X55929488Y-27559783D01*
X55649870Y-27601213D01*
X55383708Y-27696397D01*
X55258486Y-27763329D01*
X55186903Y-28007296D01*
X55160000Y-27980393D01*
X55160000Y-26660000D01*
X97857857Y-26660000D01*
X97857857Y-29530000D01*
M02*
