G04 #@! TF.GenerationSoftware,KiCad,Pcbnew,(5.1.5)-3*
G04 #@! TF.CreationDate,2021-02-08T23:57:45+00:00*
G04 #@! TF.ProjectId,faderbox,66616465-7262-46f7-982e-6b696361645f,rev?*
G04 #@! TF.SameCoordinates,Original*
G04 #@! TF.FileFunction,Soldermask,Top*
G04 #@! TF.FilePolarity,Negative*
%FSLAX46Y46*%
G04 Gerber Fmt 4.6, Leading zero omitted, Abs format (unit mm)*
G04 Created by KiCad (PCBNEW (5.1.5)-3) date 2021-02-08 23:57:45*
%MOMM*%
%LPD*%
G04 APERTURE LIST*
%ADD10C,0.100000*%
G04 APERTURE END LIST*
D10*
G36*
X69901000Y-80901000D02*
G01*
X68099000Y-80901000D01*
X68099000Y-79099000D01*
X69901000Y-79099000D01*
X69901000Y-80901000D01*
G37*
G36*
X85471000Y-76391000D02*
G01*
X83769000Y-76391000D01*
X83769000Y-74689000D01*
X85471000Y-74689000D01*
X85471000Y-76391000D01*
G37*
G36*
X69628228Y-74721703D02*
G01*
X69783100Y-74785853D01*
X69922481Y-74878985D01*
X70041015Y-74997519D01*
X70134147Y-75136900D01*
X70198297Y-75291772D01*
X70231000Y-75456184D01*
X70231000Y-75623816D01*
X70198297Y-75788228D01*
X70134147Y-75943100D01*
X70041015Y-76082481D01*
X69922481Y-76201015D01*
X69783100Y-76294147D01*
X69628228Y-76358297D01*
X69463816Y-76391000D01*
X69296184Y-76391000D01*
X69131772Y-76358297D01*
X68976900Y-76294147D01*
X68837519Y-76201015D01*
X68718985Y-76082481D01*
X68625853Y-75943100D01*
X68561703Y-75788228D01*
X68529000Y-75623816D01*
X68529000Y-75456184D01*
X68561703Y-75291772D01*
X68625853Y-75136900D01*
X68718985Y-74997519D01*
X68837519Y-74878985D01*
X68976900Y-74785853D01*
X69131772Y-74721703D01*
X69296184Y-74689000D01*
X69463816Y-74689000D01*
X69628228Y-74721703D01*
G37*
G36*
X69628228Y-72181703D02*
G01*
X69783100Y-72245853D01*
X69922481Y-72338985D01*
X70041015Y-72457519D01*
X70134147Y-72596900D01*
X70198297Y-72751772D01*
X70231000Y-72916184D01*
X70231000Y-73083816D01*
X70198297Y-73248228D01*
X70134147Y-73403100D01*
X70041015Y-73542481D01*
X69922481Y-73661015D01*
X69783100Y-73754147D01*
X69628228Y-73818297D01*
X69463816Y-73851000D01*
X69296184Y-73851000D01*
X69131772Y-73818297D01*
X68976900Y-73754147D01*
X68837519Y-73661015D01*
X68718985Y-73542481D01*
X68625853Y-73403100D01*
X68561703Y-73248228D01*
X68529000Y-73083816D01*
X68529000Y-72916184D01*
X68561703Y-72751772D01*
X68625853Y-72596900D01*
X68718985Y-72457519D01*
X68837519Y-72338985D01*
X68976900Y-72245853D01*
X69131772Y-72181703D01*
X69296184Y-72149000D01*
X69463816Y-72149000D01*
X69628228Y-72181703D01*
G37*
G36*
X84868228Y-72181703D02*
G01*
X85023100Y-72245853D01*
X85162481Y-72338985D01*
X85281015Y-72457519D01*
X85374147Y-72596900D01*
X85438297Y-72751772D01*
X85471000Y-72916184D01*
X85471000Y-73083816D01*
X85438297Y-73248228D01*
X85374147Y-73403100D01*
X85281015Y-73542481D01*
X85162481Y-73661015D01*
X85023100Y-73754147D01*
X84868228Y-73818297D01*
X84703816Y-73851000D01*
X84536184Y-73851000D01*
X84371772Y-73818297D01*
X84216900Y-73754147D01*
X84077519Y-73661015D01*
X83958985Y-73542481D01*
X83865853Y-73403100D01*
X83801703Y-73248228D01*
X83769000Y-73083816D01*
X83769000Y-72916184D01*
X83801703Y-72751772D01*
X83865853Y-72596900D01*
X83958985Y-72457519D01*
X84077519Y-72338985D01*
X84216900Y-72245853D01*
X84371772Y-72181703D01*
X84536184Y-72149000D01*
X84703816Y-72149000D01*
X84868228Y-72181703D01*
G37*
G36*
X84868228Y-69641703D02*
G01*
X85023100Y-69705853D01*
X85162481Y-69798985D01*
X85281015Y-69917519D01*
X85374147Y-70056900D01*
X85438297Y-70211772D01*
X85471000Y-70376184D01*
X85471000Y-70543816D01*
X85438297Y-70708228D01*
X85374147Y-70863100D01*
X85281015Y-71002481D01*
X85162481Y-71121015D01*
X85023100Y-71214147D01*
X84868228Y-71278297D01*
X84703816Y-71311000D01*
X84536184Y-71311000D01*
X84371772Y-71278297D01*
X84216900Y-71214147D01*
X84077519Y-71121015D01*
X83958985Y-71002481D01*
X83865853Y-70863100D01*
X83801703Y-70708228D01*
X83769000Y-70543816D01*
X83769000Y-70376184D01*
X83801703Y-70211772D01*
X83865853Y-70056900D01*
X83958985Y-69917519D01*
X84077519Y-69798985D01*
X84216900Y-69705853D01*
X84371772Y-69641703D01*
X84536184Y-69609000D01*
X84703816Y-69609000D01*
X84868228Y-69641703D01*
G37*
G36*
X69628228Y-69641703D02*
G01*
X69783100Y-69705853D01*
X69922481Y-69798985D01*
X70041015Y-69917519D01*
X70134147Y-70056900D01*
X70198297Y-70211772D01*
X70231000Y-70376184D01*
X70231000Y-70543816D01*
X70198297Y-70708228D01*
X70134147Y-70863100D01*
X70041015Y-71002481D01*
X69922481Y-71121015D01*
X69783100Y-71214147D01*
X69628228Y-71278297D01*
X69463816Y-71311000D01*
X69296184Y-71311000D01*
X69131772Y-71278297D01*
X68976900Y-71214147D01*
X68837519Y-71121015D01*
X68718985Y-71002481D01*
X68625853Y-70863100D01*
X68561703Y-70708228D01*
X68529000Y-70543816D01*
X68529000Y-70376184D01*
X68561703Y-70211772D01*
X68625853Y-70056900D01*
X68718985Y-69917519D01*
X68837519Y-69798985D01*
X68976900Y-69705853D01*
X69131772Y-69641703D01*
X69296184Y-69609000D01*
X69463816Y-69609000D01*
X69628228Y-69641703D01*
G37*
G36*
X84868228Y-67101703D02*
G01*
X85023100Y-67165853D01*
X85162481Y-67258985D01*
X85281015Y-67377519D01*
X85374147Y-67516900D01*
X85438297Y-67671772D01*
X85471000Y-67836184D01*
X85471000Y-68003816D01*
X85438297Y-68168228D01*
X85374147Y-68323100D01*
X85281015Y-68462481D01*
X85162481Y-68581015D01*
X85023100Y-68674147D01*
X84868228Y-68738297D01*
X84703816Y-68771000D01*
X84536184Y-68771000D01*
X84371772Y-68738297D01*
X84216900Y-68674147D01*
X84077519Y-68581015D01*
X83958985Y-68462481D01*
X83865853Y-68323100D01*
X83801703Y-68168228D01*
X83769000Y-68003816D01*
X83769000Y-67836184D01*
X83801703Y-67671772D01*
X83865853Y-67516900D01*
X83958985Y-67377519D01*
X84077519Y-67258985D01*
X84216900Y-67165853D01*
X84371772Y-67101703D01*
X84536184Y-67069000D01*
X84703816Y-67069000D01*
X84868228Y-67101703D01*
G37*
G36*
X69628228Y-67101703D02*
G01*
X69783100Y-67165853D01*
X69922481Y-67258985D01*
X70041015Y-67377519D01*
X70134147Y-67516900D01*
X70198297Y-67671772D01*
X70231000Y-67836184D01*
X70231000Y-68003816D01*
X70198297Y-68168228D01*
X70134147Y-68323100D01*
X70041015Y-68462481D01*
X69922481Y-68581015D01*
X69783100Y-68674147D01*
X69628228Y-68738297D01*
X69463816Y-68771000D01*
X69296184Y-68771000D01*
X69131772Y-68738297D01*
X68976900Y-68674147D01*
X68837519Y-68581015D01*
X68718985Y-68462481D01*
X68625853Y-68323100D01*
X68561703Y-68168228D01*
X68529000Y-68003816D01*
X68529000Y-67836184D01*
X68561703Y-67671772D01*
X68625853Y-67516900D01*
X68718985Y-67377519D01*
X68837519Y-67258985D01*
X68976900Y-67165853D01*
X69131772Y-67101703D01*
X69296184Y-67069000D01*
X69463816Y-67069000D01*
X69628228Y-67101703D01*
G37*
G36*
X69628228Y-64561703D02*
G01*
X69783100Y-64625853D01*
X69922481Y-64718985D01*
X70041015Y-64837519D01*
X70134147Y-64976900D01*
X70198297Y-65131772D01*
X70231000Y-65296184D01*
X70231000Y-65463816D01*
X70198297Y-65628228D01*
X70134147Y-65783100D01*
X70041015Y-65922481D01*
X69922481Y-66041015D01*
X69783100Y-66134147D01*
X69628228Y-66198297D01*
X69463816Y-66231000D01*
X69296184Y-66231000D01*
X69131772Y-66198297D01*
X68976900Y-66134147D01*
X68837519Y-66041015D01*
X68718985Y-65922481D01*
X68625853Y-65783100D01*
X68561703Y-65628228D01*
X68529000Y-65463816D01*
X68529000Y-65296184D01*
X68561703Y-65131772D01*
X68625853Y-64976900D01*
X68718985Y-64837519D01*
X68837519Y-64718985D01*
X68976900Y-64625853D01*
X69131772Y-64561703D01*
X69296184Y-64529000D01*
X69463816Y-64529000D01*
X69628228Y-64561703D01*
G37*
G36*
X84868228Y-64561703D02*
G01*
X85023100Y-64625853D01*
X85162481Y-64718985D01*
X85281015Y-64837519D01*
X85374147Y-64976900D01*
X85438297Y-65131772D01*
X85471000Y-65296184D01*
X85471000Y-65463816D01*
X85438297Y-65628228D01*
X85374147Y-65783100D01*
X85281015Y-65922481D01*
X85162481Y-66041015D01*
X85023100Y-66134147D01*
X84868228Y-66198297D01*
X84703816Y-66231000D01*
X84536184Y-66231000D01*
X84371772Y-66198297D01*
X84216900Y-66134147D01*
X84077519Y-66041015D01*
X83958985Y-65922481D01*
X83865853Y-65783100D01*
X83801703Y-65628228D01*
X83769000Y-65463816D01*
X83769000Y-65296184D01*
X83801703Y-65131772D01*
X83865853Y-64976900D01*
X83958985Y-64837519D01*
X84077519Y-64718985D01*
X84216900Y-64625853D01*
X84371772Y-64561703D01*
X84536184Y-64529000D01*
X84703816Y-64529000D01*
X84868228Y-64561703D01*
G37*
G36*
X69628228Y-62021703D02*
G01*
X69783100Y-62085853D01*
X69922481Y-62178985D01*
X70041015Y-62297519D01*
X70134147Y-62436900D01*
X70198297Y-62591772D01*
X70231000Y-62756184D01*
X70231000Y-62923816D01*
X70198297Y-63088228D01*
X70134147Y-63243100D01*
X70041015Y-63382481D01*
X69922481Y-63501015D01*
X69783100Y-63594147D01*
X69628228Y-63658297D01*
X69463816Y-63691000D01*
X69296184Y-63691000D01*
X69131772Y-63658297D01*
X68976900Y-63594147D01*
X68837519Y-63501015D01*
X68718985Y-63382481D01*
X68625853Y-63243100D01*
X68561703Y-63088228D01*
X68529000Y-62923816D01*
X68529000Y-62756184D01*
X68561703Y-62591772D01*
X68625853Y-62436900D01*
X68718985Y-62297519D01*
X68837519Y-62178985D01*
X68976900Y-62085853D01*
X69131772Y-62021703D01*
X69296184Y-61989000D01*
X69463816Y-61989000D01*
X69628228Y-62021703D01*
G37*
G36*
X84868228Y-62021703D02*
G01*
X85023100Y-62085853D01*
X85162481Y-62178985D01*
X85281015Y-62297519D01*
X85374147Y-62436900D01*
X85438297Y-62591772D01*
X85471000Y-62756184D01*
X85471000Y-62923816D01*
X85438297Y-63088228D01*
X85374147Y-63243100D01*
X85281015Y-63382481D01*
X85162481Y-63501015D01*
X85023100Y-63594147D01*
X84868228Y-63658297D01*
X84703816Y-63691000D01*
X84536184Y-63691000D01*
X84371772Y-63658297D01*
X84216900Y-63594147D01*
X84077519Y-63501015D01*
X83958985Y-63382481D01*
X83865853Y-63243100D01*
X83801703Y-63088228D01*
X83769000Y-62923816D01*
X83769000Y-62756184D01*
X83801703Y-62591772D01*
X83865853Y-62436900D01*
X83958985Y-62297519D01*
X84077519Y-62178985D01*
X84216900Y-62085853D01*
X84371772Y-62021703D01*
X84536184Y-61989000D01*
X84703816Y-61989000D01*
X84868228Y-62021703D01*
G37*
G36*
X94177585Y-59128802D02*
G01*
X94327410Y-59158604D01*
X94609674Y-59275521D01*
X94863705Y-59445259D01*
X95079741Y-59661295D01*
X95249479Y-59915326D01*
X95366396Y-60197590D01*
X95426000Y-60497240D01*
X95426000Y-60802760D01*
X95366396Y-61102410D01*
X95249479Y-61384674D01*
X95079741Y-61638705D01*
X94863705Y-61854741D01*
X94609674Y-62024479D01*
X94327410Y-62141396D01*
X94177585Y-62171198D01*
X94027761Y-62201000D01*
X93722239Y-62201000D01*
X93572415Y-62171198D01*
X93422590Y-62141396D01*
X93140326Y-62024479D01*
X92886295Y-61854741D01*
X92670259Y-61638705D01*
X92500521Y-61384674D01*
X92383604Y-61102410D01*
X92324000Y-60802760D01*
X92324000Y-60497240D01*
X92383604Y-60197590D01*
X92500521Y-59915326D01*
X92670259Y-59661295D01*
X92886295Y-59445259D01*
X93140326Y-59275521D01*
X93422590Y-59158604D01*
X93572415Y-59128802D01*
X93722239Y-59099000D01*
X94027761Y-59099000D01*
X94177585Y-59128802D01*
G37*
G36*
X77177585Y-59128802D02*
G01*
X77327410Y-59158604D01*
X77609674Y-59275521D01*
X77863705Y-59445259D01*
X78079741Y-59661295D01*
X78249479Y-59915326D01*
X78366396Y-60197590D01*
X78426000Y-60497240D01*
X78426000Y-60802760D01*
X78366396Y-61102410D01*
X78249479Y-61384674D01*
X78079741Y-61638705D01*
X77863705Y-61854741D01*
X77609674Y-62024479D01*
X77327410Y-62141396D01*
X77177585Y-62171198D01*
X77027761Y-62201000D01*
X76722239Y-62201000D01*
X76572415Y-62171198D01*
X76422590Y-62141396D01*
X76140326Y-62024479D01*
X75886295Y-61854741D01*
X75670259Y-61638705D01*
X75500521Y-61384674D01*
X75383604Y-61102410D01*
X75324000Y-60802760D01*
X75324000Y-60497240D01*
X75383604Y-60197590D01*
X75500521Y-59915326D01*
X75670259Y-59661295D01*
X75886295Y-59445259D01*
X76140326Y-59275521D01*
X76422590Y-59158604D01*
X76572415Y-59128802D01*
X76722239Y-59099000D01*
X77027761Y-59099000D01*
X77177585Y-59128802D01*
G37*
G36*
X111177585Y-59128802D02*
G01*
X111327410Y-59158604D01*
X111609674Y-59275521D01*
X111863705Y-59445259D01*
X112079741Y-59661295D01*
X112249479Y-59915326D01*
X112366396Y-60197590D01*
X112426000Y-60497240D01*
X112426000Y-60802760D01*
X112366396Y-61102410D01*
X112249479Y-61384674D01*
X112079741Y-61638705D01*
X111863705Y-61854741D01*
X111609674Y-62024479D01*
X111327410Y-62141396D01*
X111177585Y-62171198D01*
X111027761Y-62201000D01*
X110722239Y-62201000D01*
X110572415Y-62171198D01*
X110422590Y-62141396D01*
X110140326Y-62024479D01*
X109886295Y-61854741D01*
X109670259Y-61638705D01*
X109500521Y-61384674D01*
X109383604Y-61102410D01*
X109324000Y-60802760D01*
X109324000Y-60497240D01*
X109383604Y-60197590D01*
X109500521Y-59915326D01*
X109670259Y-59661295D01*
X109886295Y-59445259D01*
X110140326Y-59275521D01*
X110422590Y-59158604D01*
X110572415Y-59128802D01*
X110722239Y-59099000D01*
X111027761Y-59099000D01*
X111177585Y-59128802D01*
G37*
G36*
X60177585Y-59128802D02*
G01*
X60327410Y-59158604D01*
X60609674Y-59275521D01*
X60863705Y-59445259D01*
X61079741Y-59661295D01*
X61249479Y-59915326D01*
X61366396Y-60197590D01*
X61426000Y-60497240D01*
X61426000Y-60802760D01*
X61366396Y-61102410D01*
X61249479Y-61384674D01*
X61079741Y-61638705D01*
X60863705Y-61854741D01*
X60609674Y-62024479D01*
X60327410Y-62141396D01*
X60177585Y-62171198D01*
X60027761Y-62201000D01*
X59722239Y-62201000D01*
X59572415Y-62171198D01*
X59422590Y-62141396D01*
X59140326Y-62024479D01*
X58886295Y-61854741D01*
X58670259Y-61638705D01*
X58500521Y-61384674D01*
X58383604Y-61102410D01*
X58324000Y-60802760D01*
X58324000Y-60497240D01*
X58383604Y-60197590D01*
X58500521Y-59915326D01*
X58670259Y-59661295D01*
X58886295Y-59445259D01*
X59140326Y-59275521D01*
X59422590Y-59158604D01*
X59572415Y-59128802D01*
X59722239Y-59099000D01*
X60027761Y-59099000D01*
X60177585Y-59128802D01*
G37*
G36*
X69628228Y-59481703D02*
G01*
X69783100Y-59545853D01*
X69922481Y-59638985D01*
X70041015Y-59757519D01*
X70134147Y-59896900D01*
X70198297Y-60051772D01*
X70231000Y-60216184D01*
X70231000Y-60383816D01*
X70198297Y-60548228D01*
X70134147Y-60703100D01*
X70041015Y-60842481D01*
X69922481Y-60961015D01*
X69783100Y-61054147D01*
X69628228Y-61118297D01*
X69463816Y-61151000D01*
X69296184Y-61151000D01*
X69131772Y-61118297D01*
X68976900Y-61054147D01*
X68837519Y-60961015D01*
X68718985Y-60842481D01*
X68625853Y-60703100D01*
X68561703Y-60548228D01*
X68529000Y-60383816D01*
X68529000Y-60216184D01*
X68561703Y-60051772D01*
X68625853Y-59896900D01*
X68718985Y-59757519D01*
X68837519Y-59638985D01*
X68976900Y-59545853D01*
X69131772Y-59481703D01*
X69296184Y-59449000D01*
X69463816Y-59449000D01*
X69628228Y-59481703D01*
G37*
G36*
X84868228Y-59481703D02*
G01*
X85023100Y-59545853D01*
X85162481Y-59638985D01*
X85281015Y-59757519D01*
X85374147Y-59896900D01*
X85438297Y-60051772D01*
X85471000Y-60216184D01*
X85471000Y-60383816D01*
X85438297Y-60548228D01*
X85374147Y-60703100D01*
X85281015Y-60842481D01*
X85162481Y-60961015D01*
X85023100Y-61054147D01*
X84868228Y-61118297D01*
X84703816Y-61151000D01*
X84536184Y-61151000D01*
X84371772Y-61118297D01*
X84216900Y-61054147D01*
X84077519Y-60961015D01*
X83958985Y-60842481D01*
X83865853Y-60703100D01*
X83801703Y-60548228D01*
X83769000Y-60383816D01*
X83769000Y-60216184D01*
X83801703Y-60051772D01*
X83865853Y-59896900D01*
X83958985Y-59757519D01*
X84077519Y-59638985D01*
X84216900Y-59545853D01*
X84371772Y-59481703D01*
X84536184Y-59449000D01*
X84703816Y-59449000D01*
X84868228Y-59481703D01*
G37*
G36*
X84868228Y-56941703D02*
G01*
X85023100Y-57005853D01*
X85162481Y-57098985D01*
X85281015Y-57217519D01*
X85374147Y-57356900D01*
X85438297Y-57511772D01*
X85471000Y-57676184D01*
X85471000Y-57843816D01*
X85438297Y-58008228D01*
X85374147Y-58163100D01*
X85281015Y-58302481D01*
X85162481Y-58421015D01*
X85023100Y-58514147D01*
X84868228Y-58578297D01*
X84703816Y-58611000D01*
X84536184Y-58611000D01*
X84371772Y-58578297D01*
X84216900Y-58514147D01*
X84077519Y-58421015D01*
X83958985Y-58302481D01*
X83865853Y-58163100D01*
X83801703Y-58008228D01*
X83769000Y-57843816D01*
X83769000Y-57676184D01*
X83801703Y-57511772D01*
X83865853Y-57356900D01*
X83958985Y-57217519D01*
X84077519Y-57098985D01*
X84216900Y-57005853D01*
X84371772Y-56941703D01*
X84536184Y-56909000D01*
X84703816Y-56909000D01*
X84868228Y-56941703D01*
G37*
G36*
X69628228Y-56941703D02*
G01*
X69783100Y-57005853D01*
X69922481Y-57098985D01*
X70041015Y-57217519D01*
X70134147Y-57356900D01*
X70198297Y-57511772D01*
X70231000Y-57676184D01*
X70231000Y-57843816D01*
X70198297Y-58008228D01*
X70134147Y-58163100D01*
X70041015Y-58302481D01*
X69922481Y-58421015D01*
X69783100Y-58514147D01*
X69628228Y-58578297D01*
X69463816Y-58611000D01*
X69296184Y-58611000D01*
X69131772Y-58578297D01*
X68976900Y-58514147D01*
X68837519Y-58421015D01*
X68718985Y-58302481D01*
X68625853Y-58163100D01*
X68561703Y-58008228D01*
X68529000Y-57843816D01*
X68529000Y-57676184D01*
X68561703Y-57511772D01*
X68625853Y-57356900D01*
X68718985Y-57217519D01*
X68837519Y-57098985D01*
X68976900Y-57005853D01*
X69131772Y-56941703D01*
X69296184Y-56909000D01*
X69463816Y-56909000D01*
X69628228Y-56941703D01*
G37*
G36*
X84868228Y-54401703D02*
G01*
X85023100Y-54465853D01*
X85162481Y-54558985D01*
X85281015Y-54677519D01*
X85374147Y-54816900D01*
X85438297Y-54971772D01*
X85471000Y-55136184D01*
X85471000Y-55303816D01*
X85438297Y-55468228D01*
X85374147Y-55623100D01*
X85281015Y-55762481D01*
X85162481Y-55881015D01*
X85023100Y-55974147D01*
X84868228Y-56038297D01*
X84703816Y-56071000D01*
X84536184Y-56071000D01*
X84371772Y-56038297D01*
X84216900Y-55974147D01*
X84077519Y-55881015D01*
X83958985Y-55762481D01*
X83865853Y-55623100D01*
X83801703Y-55468228D01*
X83769000Y-55303816D01*
X83769000Y-55136184D01*
X83801703Y-54971772D01*
X83865853Y-54816900D01*
X83958985Y-54677519D01*
X84077519Y-54558985D01*
X84216900Y-54465853D01*
X84371772Y-54401703D01*
X84536184Y-54369000D01*
X84703816Y-54369000D01*
X84868228Y-54401703D01*
G37*
G36*
X69628228Y-54401703D02*
G01*
X69783100Y-54465853D01*
X69922481Y-54558985D01*
X70041015Y-54677519D01*
X70134147Y-54816900D01*
X70198297Y-54971772D01*
X70231000Y-55136184D01*
X70231000Y-55303816D01*
X70198297Y-55468228D01*
X70134147Y-55623100D01*
X70041015Y-55762481D01*
X69922481Y-55881015D01*
X69783100Y-55974147D01*
X69628228Y-56038297D01*
X69463816Y-56071000D01*
X69296184Y-56071000D01*
X69131772Y-56038297D01*
X68976900Y-55974147D01*
X68837519Y-55881015D01*
X68718985Y-55762481D01*
X68625853Y-55623100D01*
X68561703Y-55468228D01*
X68529000Y-55303816D01*
X68529000Y-55136184D01*
X68561703Y-54971772D01*
X68625853Y-54816900D01*
X68718985Y-54677519D01*
X68837519Y-54558985D01*
X68976900Y-54465853D01*
X69131772Y-54401703D01*
X69296184Y-54369000D01*
X69463816Y-54369000D01*
X69628228Y-54401703D01*
G37*
G36*
X84868228Y-51861703D02*
G01*
X85023100Y-51925853D01*
X85162481Y-52018985D01*
X85281015Y-52137519D01*
X85374147Y-52276900D01*
X85438297Y-52431772D01*
X85471000Y-52596184D01*
X85471000Y-52763816D01*
X85438297Y-52928228D01*
X85374147Y-53083100D01*
X85281015Y-53222481D01*
X85162481Y-53341015D01*
X85023100Y-53434147D01*
X84868228Y-53498297D01*
X84703816Y-53531000D01*
X84536184Y-53531000D01*
X84371772Y-53498297D01*
X84216900Y-53434147D01*
X84077519Y-53341015D01*
X83958985Y-53222481D01*
X83865853Y-53083100D01*
X83801703Y-52928228D01*
X83769000Y-52763816D01*
X83769000Y-52596184D01*
X83801703Y-52431772D01*
X83865853Y-52276900D01*
X83958985Y-52137519D01*
X84077519Y-52018985D01*
X84216900Y-51925853D01*
X84371772Y-51861703D01*
X84536184Y-51829000D01*
X84703816Y-51829000D01*
X84868228Y-51861703D01*
G37*
G36*
X69628228Y-51861703D02*
G01*
X69783100Y-51925853D01*
X69922481Y-52018985D01*
X70041015Y-52137519D01*
X70134147Y-52276900D01*
X70198297Y-52431772D01*
X70231000Y-52596184D01*
X70231000Y-52763816D01*
X70198297Y-52928228D01*
X70134147Y-53083100D01*
X70041015Y-53222481D01*
X69922481Y-53341015D01*
X69783100Y-53434147D01*
X69628228Y-53498297D01*
X69463816Y-53531000D01*
X69296184Y-53531000D01*
X69131772Y-53498297D01*
X68976900Y-53434147D01*
X68837519Y-53341015D01*
X68718985Y-53222481D01*
X68625853Y-53083100D01*
X68561703Y-52928228D01*
X68529000Y-52763816D01*
X68529000Y-52596184D01*
X68561703Y-52431772D01*
X68625853Y-52276900D01*
X68718985Y-52137519D01*
X68837519Y-52018985D01*
X68976900Y-51925853D01*
X69131772Y-51861703D01*
X69296184Y-51829000D01*
X69463816Y-51829000D01*
X69628228Y-51861703D01*
G37*
G36*
X84868228Y-49321703D02*
G01*
X85023100Y-49385853D01*
X85162481Y-49478985D01*
X85281015Y-49597519D01*
X85374147Y-49736900D01*
X85438297Y-49891772D01*
X85471000Y-50056184D01*
X85471000Y-50223816D01*
X85438297Y-50388228D01*
X85374147Y-50543100D01*
X85281015Y-50682481D01*
X85162481Y-50801015D01*
X85023100Y-50894147D01*
X84868228Y-50958297D01*
X84703816Y-50991000D01*
X84536184Y-50991000D01*
X84371772Y-50958297D01*
X84216900Y-50894147D01*
X84077519Y-50801015D01*
X83958985Y-50682481D01*
X83865853Y-50543100D01*
X83801703Y-50388228D01*
X83769000Y-50223816D01*
X83769000Y-50056184D01*
X83801703Y-49891772D01*
X83865853Y-49736900D01*
X83958985Y-49597519D01*
X84077519Y-49478985D01*
X84216900Y-49385853D01*
X84371772Y-49321703D01*
X84536184Y-49289000D01*
X84703816Y-49289000D01*
X84868228Y-49321703D01*
G37*
G36*
X69628228Y-49321703D02*
G01*
X69783100Y-49385853D01*
X69922481Y-49478985D01*
X70041015Y-49597519D01*
X70134147Y-49736900D01*
X70198297Y-49891772D01*
X70231000Y-50056184D01*
X70231000Y-50223816D01*
X70198297Y-50388228D01*
X70134147Y-50543100D01*
X70041015Y-50682481D01*
X69922481Y-50801015D01*
X69783100Y-50894147D01*
X69628228Y-50958297D01*
X69463816Y-50991000D01*
X69296184Y-50991000D01*
X69131772Y-50958297D01*
X68976900Y-50894147D01*
X68837519Y-50801015D01*
X68718985Y-50682481D01*
X68625853Y-50543100D01*
X68561703Y-50388228D01*
X68529000Y-50223816D01*
X68529000Y-50056184D01*
X68561703Y-49891772D01*
X68625853Y-49736900D01*
X68718985Y-49597519D01*
X68837519Y-49478985D01*
X68976900Y-49385853D01*
X69131772Y-49321703D01*
X69296184Y-49289000D01*
X69463816Y-49289000D01*
X69628228Y-49321703D01*
G37*
G36*
X84868228Y-46781703D02*
G01*
X85023100Y-46845853D01*
X85162481Y-46938985D01*
X85281015Y-47057519D01*
X85374147Y-47196900D01*
X85438297Y-47351772D01*
X85471000Y-47516184D01*
X85471000Y-47683816D01*
X85438297Y-47848228D01*
X85374147Y-48003100D01*
X85281015Y-48142481D01*
X85162481Y-48261015D01*
X85023100Y-48354147D01*
X84868228Y-48418297D01*
X84703816Y-48451000D01*
X84536184Y-48451000D01*
X84371772Y-48418297D01*
X84216900Y-48354147D01*
X84077519Y-48261015D01*
X83958985Y-48142481D01*
X83865853Y-48003100D01*
X83801703Y-47848228D01*
X83769000Y-47683816D01*
X83769000Y-47516184D01*
X83801703Y-47351772D01*
X83865853Y-47196900D01*
X83958985Y-47057519D01*
X84077519Y-46938985D01*
X84216900Y-46845853D01*
X84371772Y-46781703D01*
X84536184Y-46749000D01*
X84703816Y-46749000D01*
X84868228Y-46781703D01*
G37*
G36*
X69628228Y-46781703D02*
G01*
X69783100Y-46845853D01*
X69922481Y-46938985D01*
X70041015Y-47057519D01*
X70134147Y-47196900D01*
X70198297Y-47351772D01*
X70231000Y-47516184D01*
X70231000Y-47683816D01*
X70198297Y-47848228D01*
X70134147Y-48003100D01*
X70041015Y-48142481D01*
X69922481Y-48261015D01*
X69783100Y-48354147D01*
X69628228Y-48418297D01*
X69463816Y-48451000D01*
X69296184Y-48451000D01*
X69131772Y-48418297D01*
X68976900Y-48354147D01*
X68837519Y-48261015D01*
X68718985Y-48142481D01*
X68625853Y-48003100D01*
X68561703Y-47848228D01*
X68529000Y-47683816D01*
X68529000Y-47516184D01*
X68561703Y-47351772D01*
X68625853Y-47196900D01*
X68718985Y-47057519D01*
X68837519Y-46938985D01*
X68976900Y-46845853D01*
X69131772Y-46781703D01*
X69296184Y-46749000D01*
X69463816Y-46749000D01*
X69628228Y-46781703D01*
G37*
G36*
X84868228Y-44241703D02*
G01*
X85023100Y-44305853D01*
X85162481Y-44398985D01*
X85281015Y-44517519D01*
X85374147Y-44656900D01*
X85438297Y-44811772D01*
X85471000Y-44976184D01*
X85471000Y-45143816D01*
X85438297Y-45308228D01*
X85374147Y-45463100D01*
X85281015Y-45602481D01*
X85162481Y-45721015D01*
X85023100Y-45814147D01*
X84868228Y-45878297D01*
X84703816Y-45911000D01*
X84536184Y-45911000D01*
X84371772Y-45878297D01*
X84216900Y-45814147D01*
X84077519Y-45721015D01*
X83958985Y-45602481D01*
X83865853Y-45463100D01*
X83801703Y-45308228D01*
X83769000Y-45143816D01*
X83769000Y-44976184D01*
X83801703Y-44811772D01*
X83865853Y-44656900D01*
X83958985Y-44517519D01*
X84077519Y-44398985D01*
X84216900Y-44305853D01*
X84371772Y-44241703D01*
X84536184Y-44209000D01*
X84703816Y-44209000D01*
X84868228Y-44241703D01*
G37*
G36*
X69628228Y-44241703D02*
G01*
X69783100Y-44305853D01*
X69922481Y-44398985D01*
X70041015Y-44517519D01*
X70134147Y-44656900D01*
X70198297Y-44811772D01*
X70231000Y-44976184D01*
X70231000Y-45143816D01*
X70198297Y-45308228D01*
X70134147Y-45463100D01*
X70041015Y-45602481D01*
X69922481Y-45721015D01*
X69783100Y-45814147D01*
X69628228Y-45878297D01*
X69463816Y-45911000D01*
X69296184Y-45911000D01*
X69131772Y-45878297D01*
X68976900Y-45814147D01*
X68837519Y-45721015D01*
X68718985Y-45602481D01*
X68625853Y-45463100D01*
X68561703Y-45308228D01*
X68529000Y-45143816D01*
X68529000Y-44976184D01*
X68561703Y-44811772D01*
X68625853Y-44656900D01*
X68718985Y-44517519D01*
X68837519Y-44398985D01*
X68976900Y-44305853D01*
X69131772Y-44241703D01*
X69296184Y-44209000D01*
X69463816Y-44209000D01*
X69628228Y-44241703D01*
G37*
G36*
X84868228Y-41701703D02*
G01*
X85023100Y-41765853D01*
X85162481Y-41858985D01*
X85281015Y-41977519D01*
X85374147Y-42116900D01*
X85438297Y-42271772D01*
X85471000Y-42436184D01*
X85471000Y-42603816D01*
X85438297Y-42768228D01*
X85374147Y-42923100D01*
X85281015Y-43062481D01*
X85162481Y-43181015D01*
X85023100Y-43274147D01*
X84868228Y-43338297D01*
X84703816Y-43371000D01*
X84536184Y-43371000D01*
X84371772Y-43338297D01*
X84216900Y-43274147D01*
X84077519Y-43181015D01*
X83958985Y-43062481D01*
X83865853Y-42923100D01*
X83801703Y-42768228D01*
X83769000Y-42603816D01*
X83769000Y-42436184D01*
X83801703Y-42271772D01*
X83865853Y-42116900D01*
X83958985Y-41977519D01*
X84077519Y-41858985D01*
X84216900Y-41765853D01*
X84371772Y-41701703D01*
X84536184Y-41669000D01*
X84703816Y-41669000D01*
X84868228Y-41701703D01*
G37*
G36*
X69628228Y-41701703D02*
G01*
X69783100Y-41765853D01*
X69922481Y-41858985D01*
X70041015Y-41977519D01*
X70134147Y-42116900D01*
X70198297Y-42271772D01*
X70231000Y-42436184D01*
X70231000Y-42603816D01*
X70198297Y-42768228D01*
X70134147Y-42923100D01*
X70041015Y-43062481D01*
X69922481Y-43181015D01*
X69783100Y-43274147D01*
X69628228Y-43338297D01*
X69463816Y-43371000D01*
X69296184Y-43371000D01*
X69131772Y-43338297D01*
X68976900Y-43274147D01*
X68837519Y-43181015D01*
X68718985Y-43062481D01*
X68625853Y-42923100D01*
X68561703Y-42768228D01*
X68529000Y-42603816D01*
X68529000Y-42436184D01*
X68561703Y-42271772D01*
X68625853Y-42116900D01*
X68718985Y-41977519D01*
X68837519Y-41858985D01*
X68976900Y-41765853D01*
X69131772Y-41701703D01*
X69296184Y-41669000D01*
X69463816Y-41669000D01*
X69628228Y-41701703D01*
G37*
G36*
X93176000Y-40176000D02*
G01*
X90824000Y-40176000D01*
X90824000Y-37824000D01*
X93176000Y-37824000D01*
X93176000Y-40176000D01*
G37*
G36*
X61941560Y-37839064D02*
G01*
X62093027Y-37869193D01*
X62307045Y-37957842D01*
X62307046Y-37957843D01*
X62499654Y-38086539D01*
X62663461Y-38250346D01*
X62749258Y-38378751D01*
X62792158Y-38442955D01*
X62880807Y-38656973D01*
X62926000Y-38884174D01*
X62926000Y-39115826D01*
X62880807Y-39343027D01*
X62792158Y-39557045D01*
X62792157Y-39557046D01*
X62663461Y-39749654D01*
X62499654Y-39913461D01*
X62371249Y-39999258D01*
X62307045Y-40042158D01*
X62093027Y-40130807D01*
X61941560Y-40160936D01*
X61865827Y-40176000D01*
X61634173Y-40176000D01*
X61558440Y-40160936D01*
X61406973Y-40130807D01*
X61192955Y-40042158D01*
X61128751Y-39999258D01*
X61000346Y-39913461D01*
X60836539Y-39749654D01*
X60707843Y-39557046D01*
X60707842Y-39557045D01*
X60619193Y-39343027D01*
X60574000Y-39115826D01*
X60574000Y-38884174D01*
X60619193Y-38656973D01*
X60707842Y-38442955D01*
X60750742Y-38378751D01*
X60836539Y-38250346D01*
X61000346Y-38086539D01*
X61192954Y-37957843D01*
X61192955Y-37957842D01*
X61406973Y-37869193D01*
X61558440Y-37839064D01*
X61634173Y-37824000D01*
X61865827Y-37824000D01*
X61941560Y-37839064D01*
G37*
G36*
X59176000Y-40176000D02*
G01*
X56824000Y-40176000D01*
X56824000Y-37824000D01*
X59176000Y-37824000D01*
X59176000Y-40176000D01*
G37*
G36*
X112941560Y-37839064D02*
G01*
X113093027Y-37869193D01*
X113307045Y-37957842D01*
X113307046Y-37957843D01*
X113499654Y-38086539D01*
X113663461Y-38250346D01*
X113749258Y-38378751D01*
X113792158Y-38442955D01*
X113880807Y-38656973D01*
X113926000Y-38884174D01*
X113926000Y-39115826D01*
X113880807Y-39343027D01*
X113792158Y-39557045D01*
X113792157Y-39557046D01*
X113663461Y-39749654D01*
X113499654Y-39913461D01*
X113371249Y-39999258D01*
X113307045Y-40042158D01*
X113093027Y-40130807D01*
X112941560Y-40160936D01*
X112865827Y-40176000D01*
X112634173Y-40176000D01*
X112558440Y-40160936D01*
X112406973Y-40130807D01*
X112192955Y-40042158D01*
X112128751Y-39999258D01*
X112000346Y-39913461D01*
X111836539Y-39749654D01*
X111707843Y-39557046D01*
X111707842Y-39557045D01*
X111619193Y-39343027D01*
X111574000Y-39115826D01*
X111574000Y-38884174D01*
X111619193Y-38656973D01*
X111707842Y-38442955D01*
X111750742Y-38378751D01*
X111836539Y-38250346D01*
X112000346Y-38086539D01*
X112192954Y-37957843D01*
X112192955Y-37957842D01*
X112406973Y-37869193D01*
X112558440Y-37839064D01*
X112634173Y-37824000D01*
X112865827Y-37824000D01*
X112941560Y-37839064D01*
G37*
G36*
X110176000Y-40176000D02*
G01*
X107824000Y-40176000D01*
X107824000Y-37824000D01*
X110176000Y-37824000D01*
X110176000Y-40176000D01*
G37*
G36*
X95941560Y-37839064D02*
G01*
X96093027Y-37869193D01*
X96307045Y-37957842D01*
X96307046Y-37957843D01*
X96499654Y-38086539D01*
X96663461Y-38250346D01*
X96749258Y-38378751D01*
X96792158Y-38442955D01*
X96880807Y-38656973D01*
X96926000Y-38884174D01*
X96926000Y-39115826D01*
X96880807Y-39343027D01*
X96792158Y-39557045D01*
X96792157Y-39557046D01*
X96663461Y-39749654D01*
X96499654Y-39913461D01*
X96371249Y-39999258D01*
X96307045Y-40042158D01*
X96093027Y-40130807D01*
X95941560Y-40160936D01*
X95865827Y-40176000D01*
X95634173Y-40176000D01*
X95558440Y-40160936D01*
X95406973Y-40130807D01*
X95192955Y-40042158D01*
X95128751Y-39999258D01*
X95000346Y-39913461D01*
X94836539Y-39749654D01*
X94707843Y-39557046D01*
X94707842Y-39557045D01*
X94619193Y-39343027D01*
X94574000Y-39115826D01*
X94574000Y-38884174D01*
X94619193Y-38656973D01*
X94707842Y-38442955D01*
X94750742Y-38378751D01*
X94836539Y-38250346D01*
X95000346Y-38086539D01*
X95192954Y-37957843D01*
X95192955Y-37957842D01*
X95406973Y-37869193D01*
X95558440Y-37839064D01*
X95634173Y-37824000D01*
X95865827Y-37824000D01*
X95941560Y-37839064D01*
G37*
G36*
X78941560Y-37839064D02*
G01*
X79093027Y-37869193D01*
X79307045Y-37957842D01*
X79307046Y-37957843D01*
X79499654Y-38086539D01*
X79663461Y-38250346D01*
X79749258Y-38378751D01*
X79792158Y-38442955D01*
X79880807Y-38656973D01*
X79926000Y-38884174D01*
X79926000Y-39115826D01*
X79880807Y-39343027D01*
X79792158Y-39557045D01*
X79792157Y-39557046D01*
X79663461Y-39749654D01*
X79499654Y-39913461D01*
X79371249Y-39999258D01*
X79307045Y-40042158D01*
X79093027Y-40130807D01*
X78941560Y-40160936D01*
X78865827Y-40176000D01*
X78634173Y-40176000D01*
X78558440Y-40160936D01*
X78406973Y-40130807D01*
X78192955Y-40042158D01*
X78128751Y-39999258D01*
X78000346Y-39913461D01*
X77836539Y-39749654D01*
X77707843Y-39557046D01*
X77707842Y-39557045D01*
X77619193Y-39343027D01*
X77574000Y-39115826D01*
X77574000Y-38884174D01*
X77619193Y-38656973D01*
X77707842Y-38442955D01*
X77750742Y-38378751D01*
X77836539Y-38250346D01*
X78000346Y-38086539D01*
X78192954Y-37957843D01*
X78192955Y-37957842D01*
X78406973Y-37869193D01*
X78558440Y-37839064D01*
X78634173Y-37824000D01*
X78865827Y-37824000D01*
X78941560Y-37839064D01*
G37*
G36*
X76176000Y-40176000D02*
G01*
X73824000Y-40176000D01*
X73824000Y-37824000D01*
X76176000Y-37824000D01*
X76176000Y-40176000D01*
G37*
G36*
X72573512Y-31103927D02*
G01*
X72722812Y-31133624D01*
X72886784Y-31201544D01*
X73034354Y-31300147D01*
X73159853Y-31425646D01*
X73258456Y-31573216D01*
X73326376Y-31737188D01*
X73361000Y-31911259D01*
X73361000Y-32088741D01*
X73326376Y-32262812D01*
X73258456Y-32426784D01*
X73159853Y-32574354D01*
X73034354Y-32699853D01*
X72886784Y-32798456D01*
X72722812Y-32866376D01*
X72573512Y-32896073D01*
X72548742Y-32901000D01*
X72371258Y-32901000D01*
X72346488Y-32896073D01*
X72197188Y-32866376D01*
X72033216Y-32798456D01*
X71885646Y-32699853D01*
X71760147Y-32574354D01*
X71661544Y-32426784D01*
X71593624Y-32262812D01*
X71559000Y-32088741D01*
X71559000Y-31911259D01*
X71593624Y-31737188D01*
X71661544Y-31573216D01*
X71760147Y-31425646D01*
X71885646Y-31300147D01*
X72033216Y-31201544D01*
X72197188Y-31133624D01*
X72346488Y-31103927D01*
X72371258Y-31099000D01*
X72548742Y-31099000D01*
X72573512Y-31103927D01*
G37*
G36*
X70033512Y-31103927D02*
G01*
X70182812Y-31133624D01*
X70346784Y-31201544D01*
X70494354Y-31300147D01*
X70619853Y-31425646D01*
X70718456Y-31573216D01*
X70786376Y-31737188D01*
X70821000Y-31911259D01*
X70821000Y-32088741D01*
X70786376Y-32262812D01*
X70718456Y-32426784D01*
X70619853Y-32574354D01*
X70494354Y-32699853D01*
X70346784Y-32798456D01*
X70182812Y-32866376D01*
X70033512Y-32896073D01*
X70008742Y-32901000D01*
X69831258Y-32901000D01*
X69806488Y-32896073D01*
X69657188Y-32866376D01*
X69493216Y-32798456D01*
X69345646Y-32699853D01*
X69220147Y-32574354D01*
X69121544Y-32426784D01*
X69053624Y-32262812D01*
X69019000Y-32088741D01*
X69019000Y-31911259D01*
X69053624Y-31737188D01*
X69121544Y-31573216D01*
X69220147Y-31425646D01*
X69345646Y-31300147D01*
X69493216Y-31201544D01*
X69657188Y-31133624D01*
X69806488Y-31103927D01*
X69831258Y-31099000D01*
X70008742Y-31099000D01*
X70033512Y-31103927D01*
G37*
G36*
X75901000Y-32901000D02*
G01*
X74099000Y-32901000D01*
X74099000Y-31099000D01*
X75901000Y-31099000D01*
X75901000Y-32901000D01*
G37*
G36*
X66408228Y-31181703D02*
G01*
X66563100Y-31245853D01*
X66702481Y-31338985D01*
X66821015Y-31457519D01*
X66914147Y-31596900D01*
X66978297Y-31751772D01*
X67011000Y-31916184D01*
X67011000Y-32083816D01*
X66978297Y-32248228D01*
X66914147Y-32403100D01*
X66821015Y-32542481D01*
X66702481Y-32661015D01*
X66563100Y-32754147D01*
X66408228Y-32818297D01*
X66243816Y-32851000D01*
X66076184Y-32851000D01*
X65911772Y-32818297D01*
X65756900Y-32754147D01*
X65617519Y-32661015D01*
X65498985Y-32542481D01*
X65405853Y-32403100D01*
X65341703Y-32248228D01*
X65309000Y-32083816D01*
X65309000Y-31916184D01*
X65341703Y-31751772D01*
X65405853Y-31596900D01*
X65498985Y-31457519D01*
X65617519Y-31338985D01*
X65756900Y-31245853D01*
X65911772Y-31181703D01*
X66076184Y-31149000D01*
X66243816Y-31149000D01*
X66408228Y-31181703D01*
G37*
G36*
X90248228Y-31181703D02*
G01*
X90403100Y-31245853D01*
X90542481Y-31338985D01*
X90661015Y-31457519D01*
X90754147Y-31596900D01*
X90818297Y-31751772D01*
X90851000Y-31916184D01*
X90851000Y-32083816D01*
X90818297Y-32248228D01*
X90754147Y-32403100D01*
X90661015Y-32542481D01*
X90542481Y-32661015D01*
X90403100Y-32754147D01*
X90248228Y-32818297D01*
X90083816Y-32851000D01*
X89916184Y-32851000D01*
X89751772Y-32818297D01*
X89596900Y-32754147D01*
X89457519Y-32661015D01*
X89338985Y-32542481D01*
X89245853Y-32403100D01*
X89181703Y-32248228D01*
X89149000Y-32083816D01*
X89149000Y-31916184D01*
X89181703Y-31751772D01*
X89245853Y-31596900D01*
X89338985Y-31457519D01*
X89457519Y-31338985D01*
X89596900Y-31245853D01*
X89751772Y-31181703D01*
X89916184Y-31149000D01*
X90083816Y-31149000D01*
X90248228Y-31181703D01*
G37*
G36*
X80088228Y-31181703D02*
G01*
X80243100Y-31245853D01*
X80382481Y-31338985D01*
X80501015Y-31457519D01*
X80594147Y-31596900D01*
X80658297Y-31751772D01*
X80691000Y-31916184D01*
X80691000Y-32083816D01*
X80658297Y-32248228D01*
X80594147Y-32403100D01*
X80501015Y-32542481D01*
X80382481Y-32661015D01*
X80243100Y-32754147D01*
X80088228Y-32818297D01*
X79923816Y-32851000D01*
X79756184Y-32851000D01*
X79591772Y-32818297D01*
X79436900Y-32754147D01*
X79297519Y-32661015D01*
X79178985Y-32542481D01*
X79085853Y-32403100D01*
X79021703Y-32248228D01*
X78989000Y-32083816D01*
X78989000Y-31916184D01*
X79021703Y-31751772D01*
X79085853Y-31596900D01*
X79178985Y-31457519D01*
X79297519Y-31338985D01*
X79436900Y-31245853D01*
X79591772Y-31181703D01*
X79756184Y-31149000D01*
X79923816Y-31149000D01*
X80088228Y-31181703D01*
G37*
G36*
X56248228Y-31181703D02*
G01*
X56403100Y-31245853D01*
X56542481Y-31338985D01*
X56661015Y-31457519D01*
X56754147Y-31596900D01*
X56818297Y-31751772D01*
X56851000Y-31916184D01*
X56851000Y-32083816D01*
X56818297Y-32248228D01*
X56754147Y-32403100D01*
X56661015Y-32542481D01*
X56542481Y-32661015D01*
X56403100Y-32754147D01*
X56248228Y-32818297D01*
X56083816Y-32851000D01*
X55916184Y-32851000D01*
X55751772Y-32818297D01*
X55596900Y-32754147D01*
X55457519Y-32661015D01*
X55338985Y-32542481D01*
X55245853Y-32403100D01*
X55181703Y-32248228D01*
X55149000Y-32083816D01*
X55149000Y-31916184D01*
X55181703Y-31751772D01*
X55245853Y-31596900D01*
X55338985Y-31457519D01*
X55457519Y-31338985D01*
X55596900Y-31245853D01*
X55751772Y-31181703D01*
X55916184Y-31149000D01*
X56083816Y-31149000D01*
X56248228Y-31181703D01*
G37*
G36*
X72573512Y-28563927D02*
G01*
X72722812Y-28593624D01*
X72886784Y-28661544D01*
X73034354Y-28760147D01*
X73159853Y-28885646D01*
X73258456Y-29033216D01*
X73326376Y-29197188D01*
X73361000Y-29371259D01*
X73361000Y-29548741D01*
X73326376Y-29722812D01*
X73258456Y-29886784D01*
X73159853Y-30034354D01*
X73034354Y-30159853D01*
X72886784Y-30258456D01*
X72722812Y-30326376D01*
X72573512Y-30356073D01*
X72548742Y-30361000D01*
X72371258Y-30361000D01*
X72346488Y-30356073D01*
X72197188Y-30326376D01*
X72033216Y-30258456D01*
X71885646Y-30159853D01*
X71760147Y-30034354D01*
X71661544Y-29886784D01*
X71593624Y-29722812D01*
X71559000Y-29548741D01*
X71559000Y-29371259D01*
X71593624Y-29197188D01*
X71661544Y-29033216D01*
X71760147Y-28885646D01*
X71885646Y-28760147D01*
X72033216Y-28661544D01*
X72197188Y-28593624D01*
X72346488Y-28563927D01*
X72371258Y-28559000D01*
X72548742Y-28559000D01*
X72573512Y-28563927D01*
G37*
G36*
X70033512Y-28563927D02*
G01*
X70182812Y-28593624D01*
X70346784Y-28661544D01*
X70494354Y-28760147D01*
X70619853Y-28885646D01*
X70718456Y-29033216D01*
X70786376Y-29197188D01*
X70821000Y-29371259D01*
X70821000Y-29548741D01*
X70786376Y-29722812D01*
X70718456Y-29886784D01*
X70619853Y-30034354D01*
X70494354Y-30159853D01*
X70346784Y-30258456D01*
X70182812Y-30326376D01*
X70033512Y-30356073D01*
X70008742Y-30361000D01*
X69831258Y-30361000D01*
X69806488Y-30356073D01*
X69657188Y-30326376D01*
X69493216Y-30258456D01*
X69345646Y-30159853D01*
X69220147Y-30034354D01*
X69121544Y-29886784D01*
X69053624Y-29722812D01*
X69019000Y-29548741D01*
X69019000Y-29371259D01*
X69053624Y-29197188D01*
X69121544Y-29033216D01*
X69220147Y-28885646D01*
X69345646Y-28760147D01*
X69493216Y-28661544D01*
X69657188Y-28593624D01*
X69806488Y-28563927D01*
X69831258Y-28559000D01*
X70008742Y-28559000D01*
X70033512Y-28563927D01*
G37*
G36*
X75113512Y-28563927D02*
G01*
X75262812Y-28593624D01*
X75426784Y-28661544D01*
X75574354Y-28760147D01*
X75699853Y-28885646D01*
X75798456Y-29033216D01*
X75866376Y-29197188D01*
X75901000Y-29371259D01*
X75901000Y-29548741D01*
X75866376Y-29722812D01*
X75798456Y-29886784D01*
X75699853Y-30034354D01*
X75574354Y-30159853D01*
X75426784Y-30258456D01*
X75262812Y-30326376D01*
X75113512Y-30356073D01*
X75088742Y-30361000D01*
X74911258Y-30361000D01*
X74886488Y-30356073D01*
X74737188Y-30326376D01*
X74573216Y-30258456D01*
X74425646Y-30159853D01*
X74300147Y-30034354D01*
X74201544Y-29886784D01*
X74133624Y-29722812D01*
X74099000Y-29548741D01*
X74099000Y-29371259D01*
X74133624Y-29197188D01*
X74201544Y-29033216D01*
X74300147Y-28885646D01*
X74425646Y-28760147D01*
X74573216Y-28661544D01*
X74737188Y-28593624D01*
X74886488Y-28563927D01*
X74911258Y-28559000D01*
X75088742Y-28559000D01*
X75113512Y-28563927D01*
G37*
G36*
X66408228Y-28181703D02*
G01*
X66563100Y-28245853D01*
X66702481Y-28338985D01*
X66821015Y-28457519D01*
X66914147Y-28596900D01*
X66978297Y-28751772D01*
X67011000Y-28916184D01*
X67011000Y-29083816D01*
X66978297Y-29248228D01*
X66914147Y-29403100D01*
X66821015Y-29542481D01*
X66702481Y-29661015D01*
X66563100Y-29754147D01*
X66408228Y-29818297D01*
X66243816Y-29851000D01*
X66076184Y-29851000D01*
X65911772Y-29818297D01*
X65756900Y-29754147D01*
X65617519Y-29661015D01*
X65498985Y-29542481D01*
X65405853Y-29403100D01*
X65341703Y-29248228D01*
X65309000Y-29083816D01*
X65309000Y-28916184D01*
X65341703Y-28751772D01*
X65405853Y-28596900D01*
X65498985Y-28457519D01*
X65617519Y-28338985D01*
X65756900Y-28245853D01*
X65911772Y-28181703D01*
X66076184Y-28149000D01*
X66243816Y-28149000D01*
X66408228Y-28181703D01*
G37*
G36*
X90248228Y-28181703D02*
G01*
X90403100Y-28245853D01*
X90542481Y-28338985D01*
X90661015Y-28457519D01*
X90754147Y-28596900D01*
X90818297Y-28751772D01*
X90851000Y-28916184D01*
X90851000Y-29083816D01*
X90818297Y-29248228D01*
X90754147Y-29403100D01*
X90661015Y-29542481D01*
X90542481Y-29661015D01*
X90403100Y-29754147D01*
X90248228Y-29818297D01*
X90083816Y-29851000D01*
X89916184Y-29851000D01*
X89751772Y-29818297D01*
X89596900Y-29754147D01*
X89457519Y-29661015D01*
X89338985Y-29542481D01*
X89245853Y-29403100D01*
X89181703Y-29248228D01*
X89149000Y-29083816D01*
X89149000Y-28916184D01*
X89181703Y-28751772D01*
X89245853Y-28596900D01*
X89338985Y-28457519D01*
X89457519Y-28338985D01*
X89596900Y-28245853D01*
X89751772Y-28181703D01*
X89916184Y-28149000D01*
X90083816Y-28149000D01*
X90248228Y-28181703D01*
G37*
G36*
X80088228Y-28181703D02*
G01*
X80243100Y-28245853D01*
X80382481Y-28338985D01*
X80501015Y-28457519D01*
X80594147Y-28596900D01*
X80658297Y-28751772D01*
X80691000Y-28916184D01*
X80691000Y-29083816D01*
X80658297Y-29248228D01*
X80594147Y-29403100D01*
X80501015Y-29542481D01*
X80382481Y-29661015D01*
X80243100Y-29754147D01*
X80088228Y-29818297D01*
X79923816Y-29851000D01*
X79756184Y-29851000D01*
X79591772Y-29818297D01*
X79436900Y-29754147D01*
X79297519Y-29661015D01*
X79178985Y-29542481D01*
X79085853Y-29403100D01*
X79021703Y-29248228D01*
X78989000Y-29083816D01*
X78989000Y-28916184D01*
X79021703Y-28751772D01*
X79085853Y-28596900D01*
X79178985Y-28457519D01*
X79297519Y-28338985D01*
X79436900Y-28245853D01*
X79591772Y-28181703D01*
X79756184Y-28149000D01*
X79923816Y-28149000D01*
X80088228Y-28181703D01*
G37*
G36*
X56248228Y-28181703D02*
G01*
X56403100Y-28245853D01*
X56542481Y-28338985D01*
X56661015Y-28457519D01*
X56754147Y-28596900D01*
X56818297Y-28751772D01*
X56851000Y-28916184D01*
X56851000Y-29083816D01*
X56818297Y-29248228D01*
X56754147Y-29403100D01*
X56661015Y-29542481D01*
X56542481Y-29661015D01*
X56403100Y-29754147D01*
X56248228Y-29818297D01*
X56083816Y-29851000D01*
X55916184Y-29851000D01*
X55751772Y-29818297D01*
X55596900Y-29754147D01*
X55457519Y-29661015D01*
X55338985Y-29542481D01*
X55245853Y-29403100D01*
X55181703Y-29248228D01*
X55149000Y-29083816D01*
X55149000Y-28916184D01*
X55181703Y-28751772D01*
X55245853Y-28596900D01*
X55338985Y-28457519D01*
X55457519Y-28338985D01*
X55596900Y-28245853D01*
X55751772Y-28181703D01*
X55916184Y-28149000D01*
X56083816Y-28149000D01*
X56248228Y-28181703D01*
G37*
M02*
