G04 #@! TF.GenerationSoftware,KiCad,Pcbnew,(5.1.5)-3*
G04 #@! TF.CreationDate,2021-02-08T23:57:45+00:00*
G04 #@! TF.ProjectId,faderbox,66616465-7262-46f7-982e-6b696361645f,rev?*
G04 #@! TF.SameCoordinates,Original*
G04 #@! TF.FileFunction,Legend,Bot*
G04 #@! TF.FilePolarity,Positive*
%FSLAX46Y46*%
G04 Gerber Fmt 4.6, Leading zero omitted, Abs format (unit mm)*
G04 Created by KiCad (PCBNEW (5.1.5)-3) date 2021-02-08 23:57:45*
%MOMM*%
%LPD*%
G04 APERTURE LIST*
%ADD10C,0.100000*%
%ADD11C,0.120000*%
%ADD12C,0.254000*%
%ADD13C,0.150000*%
G04 APERTURE END LIST*
D10*
X55675000Y-38750000D02*
X56375000Y-38750000D01*
X55675000Y-79640000D02*
X55675000Y-38750000D01*
X64075000Y-38750000D02*
X64075000Y-79640000D01*
X63375000Y-38750000D02*
X64075000Y-38750000D01*
X106675000Y-38750000D02*
X107375000Y-38750000D01*
X106675000Y-79640000D02*
X106675000Y-38750000D01*
X115075000Y-38750000D02*
X115075000Y-79640000D01*
X114375000Y-38750000D02*
X115075000Y-38750000D01*
X89675000Y-38750000D02*
X90375000Y-38750000D01*
X89675000Y-79640000D02*
X89675000Y-38750000D01*
X98075000Y-38750000D02*
X98075000Y-79640000D01*
X97375000Y-38750000D02*
X98075000Y-38750000D01*
X72675000Y-38750000D02*
X73375000Y-38750000D01*
X72675000Y-79640000D02*
X72675000Y-38750000D01*
X81075000Y-38750000D02*
X81075000Y-79640000D01*
X80375000Y-38750000D02*
X81075000Y-38750000D01*
D11*
X68590000Y-33330000D02*
X68590000Y-28130000D01*
X73730000Y-33330000D02*
X68590000Y-33330000D01*
X76330000Y-28130000D02*
X68590000Y-28130000D01*
X73730000Y-33330000D02*
X73730000Y-30730000D01*
X73730000Y-30730000D02*
X76330000Y-30730000D01*
X76330000Y-30730000D02*
X76330000Y-28130000D01*
X75000000Y-33330000D02*
X76330000Y-33330000D01*
X76330000Y-33330000D02*
X76330000Y-32000000D01*
D12*
X59179523Y-53336904D02*
X60449523Y-53760238D01*
X59179523Y-54183571D01*
X60449523Y-55332619D02*
X59844761Y-54909285D01*
X60449523Y-54606904D02*
X59179523Y-54606904D01*
X59179523Y-55090714D01*
X59240000Y-55211666D01*
X59300476Y-55272142D01*
X59421428Y-55332619D01*
X59602857Y-55332619D01*
X59723809Y-55272142D01*
X59784285Y-55211666D01*
X59844761Y-55090714D01*
X59844761Y-54606904D01*
X59602857Y-56421190D02*
X60449523Y-56421190D01*
X59119047Y-56118809D02*
X60026190Y-55816428D01*
X60026190Y-56602619D01*
X110179523Y-54336904D02*
X111449523Y-54760238D01*
X110179523Y-55183571D01*
X111449523Y-56332619D02*
X110844761Y-55909285D01*
X111449523Y-55606904D02*
X110179523Y-55606904D01*
X110179523Y-56090714D01*
X110240000Y-56211666D01*
X110300476Y-56272142D01*
X110421428Y-56332619D01*
X110602857Y-56332619D01*
X110723809Y-56272142D01*
X110784285Y-56211666D01*
X110844761Y-56090714D01*
X110844761Y-55606904D01*
X111449523Y-57542142D02*
X111449523Y-56816428D01*
X111449523Y-57179285D02*
X110179523Y-57179285D01*
X110360952Y-57058333D01*
X110481904Y-56937380D01*
X110542380Y-56816428D01*
X93179523Y-53336904D02*
X94449523Y-53760238D01*
X93179523Y-54183571D01*
X94449523Y-55332619D02*
X93844761Y-54909285D01*
X94449523Y-54606904D02*
X93179523Y-54606904D01*
X93179523Y-55090714D01*
X93240000Y-55211666D01*
X93300476Y-55272142D01*
X93421428Y-55332619D01*
X93602857Y-55332619D01*
X93723809Y-55272142D01*
X93784285Y-55211666D01*
X93844761Y-55090714D01*
X93844761Y-54606904D01*
X93300476Y-55816428D02*
X93240000Y-55876904D01*
X93179523Y-55997857D01*
X93179523Y-56300238D01*
X93240000Y-56421190D01*
X93300476Y-56481666D01*
X93421428Y-56542142D01*
X93542380Y-56542142D01*
X93723809Y-56481666D01*
X94449523Y-55755952D01*
X94449523Y-56542142D01*
X76179523Y-53336904D02*
X77449523Y-53760238D01*
X76179523Y-54183571D01*
X77449523Y-55332619D02*
X76844761Y-54909285D01*
X77449523Y-54606904D02*
X76179523Y-54606904D01*
X76179523Y-55090714D01*
X76240000Y-55211666D01*
X76300476Y-55272142D01*
X76421428Y-55332619D01*
X76602857Y-55332619D01*
X76723809Y-55272142D01*
X76784285Y-55211666D01*
X76844761Y-55090714D01*
X76844761Y-54606904D01*
X76179523Y-55755952D02*
X76179523Y-56542142D01*
X76663333Y-56118809D01*
X76663333Y-56300238D01*
X76723809Y-56421190D01*
X76784285Y-56481666D01*
X76905238Y-56542142D01*
X77207619Y-56542142D01*
X77328571Y-56481666D01*
X77389047Y-56421190D01*
X77449523Y-56300238D01*
X77449523Y-55937380D01*
X77389047Y-55816428D01*
X77328571Y-55755952D01*
D13*
X77571428Y-34253809D02*
X77571428Y-33920476D01*
X77047619Y-33777619D02*
X77047619Y-34253809D01*
X78047619Y-34253809D01*
X78047619Y-33777619D01*
X77047619Y-33444285D02*
X77714285Y-32920476D01*
X77714285Y-33444285D02*
X77047619Y-32920476D01*
X77714285Y-32539523D02*
X76714285Y-32539523D01*
X77666666Y-32539523D02*
X77714285Y-32444285D01*
X77714285Y-32253809D01*
X77666666Y-32158571D01*
X77619047Y-32110952D01*
X77523809Y-32063333D01*
X77238095Y-32063333D01*
X77142857Y-32110952D01*
X77095238Y-32158571D01*
X77047619Y-32253809D01*
X77047619Y-32444285D01*
X77095238Y-32539523D01*
X77047619Y-31206190D02*
X77571428Y-31206190D01*
X77666666Y-31253809D01*
X77714285Y-31349047D01*
X77714285Y-31539523D01*
X77666666Y-31634761D01*
X77095238Y-31206190D02*
X77047619Y-31301428D01*
X77047619Y-31539523D01*
X77095238Y-31634761D01*
X77190476Y-31682380D01*
X77285714Y-31682380D01*
X77380952Y-31634761D01*
X77428571Y-31539523D01*
X77428571Y-31301428D01*
X77476190Y-31206190D01*
X77714285Y-30730000D02*
X77047619Y-30730000D01*
X77619047Y-30730000D02*
X77666666Y-30682380D01*
X77714285Y-30587142D01*
X77714285Y-30444285D01*
X77666666Y-30349047D01*
X77571428Y-30301428D01*
X77047619Y-30301428D01*
X77095238Y-29872857D02*
X77047619Y-29777619D01*
X77047619Y-29587142D01*
X77095238Y-29491904D01*
X77190476Y-29444285D01*
X77238095Y-29444285D01*
X77333333Y-29491904D01*
X77380952Y-29587142D01*
X77380952Y-29730000D01*
X77428571Y-29825238D01*
X77523809Y-29872857D01*
X77571428Y-29872857D01*
X77666666Y-29825238D01*
X77714285Y-29730000D01*
X77714285Y-29587142D01*
X77666666Y-29491904D01*
X77047619Y-29015714D02*
X77714285Y-29015714D01*
X78047619Y-29015714D02*
X78000000Y-29063333D01*
X77952380Y-29015714D01*
X78000000Y-28968095D01*
X78047619Y-29015714D01*
X77952380Y-29015714D01*
X77047619Y-28396666D02*
X77095238Y-28491904D01*
X77142857Y-28539523D01*
X77238095Y-28587142D01*
X77523809Y-28587142D01*
X77619047Y-28539523D01*
X77666666Y-28491904D01*
X77714285Y-28396666D01*
X77714285Y-28253809D01*
X77666666Y-28158571D01*
X77619047Y-28110952D01*
X77523809Y-28063333D01*
X77238095Y-28063333D01*
X77142857Y-28110952D01*
X77095238Y-28158571D01*
X77047619Y-28253809D01*
X77047619Y-28396666D01*
X77714285Y-27634761D02*
X77047619Y-27634761D01*
X77619047Y-27634761D02*
X77666666Y-27587142D01*
X77714285Y-27491904D01*
X77714285Y-27349047D01*
X77666666Y-27253809D01*
X77571428Y-27206190D01*
X77047619Y-27206190D01*
M02*
