M48
; DRILL file {KiCad (5.1.5)-3} date 08/02/2021 23:57:42
; FORMAT={-:-/ absolute / metric / decimal}
; #@! TF.CreationDate,2021-02-08T23:57:42+00:00
; #@! TF.GenerationSoftware,Kicad,Pcbnew,(5.1.5)-3
; #@! TF.FileFunction,Plated,1,2,PTH
FMAT,2
METRIC
T1C0.800
T2C1.000
T3C1.100
T4C1.500
T5C2.000
%
G90
G05
T1
X79.84Y-32.0
X90.0Y-32.0
X56.0Y-29.0
X66.16Y-29.0
X56.0Y-32.0
X66.16Y-32.0
X79.84Y-29.0
X90.0Y-29.0
T2
X69.92Y-29.46
X69.92Y-32.0
X72.46Y-29.46
X72.46Y-32.0
X75.0Y-29.46
X75.0Y-32.0
X69.0Y-80.0
T3
X69.38Y-42.52
X69.38Y-45.06
X69.38Y-47.6
X69.38Y-50.14
X69.38Y-52.68
X69.38Y-55.22
X69.38Y-57.76
X69.38Y-60.3
X69.38Y-62.84
X69.38Y-65.38
X69.38Y-67.92
X69.38Y-70.46
X69.38Y-73.0
X69.38Y-75.54
X84.62Y-42.52
X84.62Y-45.06
X84.62Y-47.6
X84.62Y-50.14
X84.62Y-52.68
X84.62Y-55.22
X84.62Y-57.76
X84.62Y-60.3
X84.62Y-62.84
X84.62Y-65.38
X84.62Y-67.92
X84.62Y-70.46
X84.62Y-73.0
X84.62Y-75.54
T4
X75.0Y-39.0
X78.75Y-39.0
X92.0Y-39.0
X95.75Y-39.0
X58.0Y-39.0
X61.75Y-39.0
X109.0Y-39.0
X112.75Y-39.0
T5
X76.875Y-60.65
X93.875Y-60.65
X59.875Y-60.65
X110.875Y-60.65
T0
M30
